<svg xmlns="http://www.w3.org/2000/svg" width="1600" height="900" viewBox="0 0 1600 900">
  <defs>
    <linearGradient id="bg" x1="0" y1="0" x2="1" y2="1">
      <stop offset="0" stop-color="#050814"/>
      <stop offset="0.6" stop-color="#070A18"/>
      <stop offset="1" stop-color="#02040C"/>
    </linearGradient>
    <radialGradient id="glowA" cx="30%" cy="40%" r="55%">
      <stop offset="0" stop-color="#14b8a6" stop-opacity="0.22"/>
      <stop offset="0.55" stop-color="#14b8a6" stop-opacity="0.09"/>
      <stop offset="1" stop-color="#14b8a6" stop-opacity="0"/>
    </radialGradient>
    <radialGradient id="glowB" cx="72%" cy="62%" r="60%">
      <stop offset="0" stop-color="#2b7cff" stop-opacity="0.18"/>
      <stop offset="0.6" stop-color="#2b7cff" stop-opacity="0.08"/>
      <stop offset="1" stop-color="#2b7cff" stop-opacity="0"/>
    </radialGradient>
    <filter id="blur" x="-20%" y="-20%" width="140%" height="140%">
      <feGaussianBlur stdDeviation="22"/>
    </filter>
    <linearGradient id="stroke" x1="0" y1="0" x2="1" y2="0">
      <stop offset="0" stop-color="#ffffff" stop-opacity="0.22"/>
      <stop offset="1" stop-color="#ffffff" stop-opacity="0.06"/>
    </linearGradient>
  </defs>

  <rect width="1600" height="900" fill="url(#bg)"/>
  <g filter="url(#blur)">
    <circle cx="520" cy="360" r="380" fill="url(#glowA)"/>
    <circle cx="1120" cy="600" r="440" fill="url(#glowB)"/>
  </g>

  <g opacity="0.9">
    <rect x="150" y="210" width="650" height="260" rx="28" fill="#0b1026" fill-opacity="0.33" stroke="url(#stroke)"/>
    <rect x="860" y="470" width="600" height="260" rx="28" fill="#0b1026" fill-opacity="0.28" stroke="url(#stroke)"/>
  </g>

  <!-- minimal lock mark -->
  <g transform="translate(1250 165)" opacity="0.9">
    <rect x="22" y="62" width="76" height="70" rx="14" fill="#ffffff" fill-opacity="0.14" stroke="#ffffff" stroke-opacity="0.22" stroke-width="2"/>
    <path d="M40 62 V44 C40 24 56 10 60 10 C64 10 80 24 80 44 V62"
      fill="none" stroke="#ffffff" stroke-opacity="0.22" stroke-width="10" stroke-linecap="round"/>
    <circle cx="60" cy="96" r="10" fill="#14b8a6" fill-opacity="0.35"/>
  </g>
</svg>

