<svg xmlns="http://www.w3.org/2000/svg" width="1024" height="1024" viewBox="0 0 1024 1024" fill="none" role="img" aria-label="NEUS"><title>NEUS</title><circle cx="512" cy="512" r="250" stroke="#98C0EF" stroke-width="16" fill="none"/><g fill="#98C0EF"><circle cx="512" cy="222" r="9"/><circle cx="549.853" cy="224.481" r="9"/><circle cx="587.058" cy="231.882" r="9"/><circle cx="622.978" cy="244.075" r="9"/><circle cx="657" cy="260.853" r="9"/><circle cx="688.541" cy="281.928" r="9"/><circle cx="717.061" cy="306.939" r="9"/><circle cx="742.072" cy="335.459" r="9"/><circle cx="763.147" cy="367" r="9"/><circle cx="779.925" cy="401.022" r="9"/><circle cx="792.118" cy="436.942" r="9"/><circle cx="799.519" cy="474.147" r="9"/><circle cx="802" cy="512" r="9"/><circle cx="799.519" cy="549.853" r="9"/><circle cx="792.118" cy="587.058" r="9"/><circle cx="779.925" cy="622.978" r="9"/><circle cx="763.147" cy="657" r="9"/><circle cx="742.072" cy="688.541" r="9"/><circle cx="717.061" cy="717.061" r="9"/><circle cx="688.541" cy="742.072" r="9"/><circle cx="657" cy="763.147" r="9"/><circle cx="622.978" cy="779.925" r="9"/><circle cx="587.058" cy="792.118" r="9"/><circle cx="549.853" cy="799.519" r="9"/><circle cx="512" cy="802" r="9"/><circle cx="474.147" cy="799.519" r="9"/><circle cx="436.942" cy="792.118" r="9"/><circle cx="401.022" cy="779.925" r="9"/><circle cx="367" cy="763.147" r="9"/><circle cx="335.459" cy="742.072" r="9"/><circle cx="306.939" cy="717.061" r="9"/><circle cx="281.928" cy="688.541" r="9"/><circle cx="260.853" cy="657" r="9"/><circle cx="244.075" cy="622.978" r="9"/><circle cx="231.882" cy="587.058" r="9"/><circle cx="224.481" cy="549.853" r="9"/><circle cx="222" cy="512" r="9"/><circle cx="224.481" cy="474.147" r="9"/><circle cx="231.882" cy="436.942" r="9"/><circle cx="244.075" cy="401.022" r="9"/><circle cx="260.853" cy="367" r="9"/><circle cx="281.928" cy="335.459" r="9"/><circle cx="306.939" cy="306.939" r="9"/><circle cx="335.459" cy="281.928" r="9"/><circle cx="367" cy="260.853" r="9"/><circle cx="401.022" cy="244.075" r="9"/><circle cx="436.942" cy="231.882" r="9"/><circle cx="474.147" cy="224.481" r="9"/><circle cx="512" cy="186" r="7"/><circle cx="554.552" cy="188.789" r="7"/><circle cx="596.375" cy="197.108" r="7"/><circle cx="636.755" cy="210.815" r="7"/><circle cx="675" cy="229.676" r="7"/><circle cx="710.456" cy="253.367" r="7"/><circle cx="742.517" cy="281.483" r="7"/><circle cx="770.633" cy="313.544" r="7"/><circle cx="794.324" cy="349" r="7"/><circle cx="813.185" cy="387.245" r="7"/><circle cx="826.892" cy="427.625" r="7"/><circle cx="835.211" cy="469.448" r="7"/><circle cx="838" cy="512" r="7"/><circle cx="835.211" cy="554.552" r="7"/><circle cx="826.892" cy="596.375" r="7"/><circle cx="813.185" cy="636.755" r="7"/><circle cx="794.324" cy="675" r="7"/><circle cx="770.633" cy="710.456" r="7"/><circle cx="742.517" cy="742.517" r="7"/><circle cx="710.456" cy="770.633" r="7"/><circle cx="675" cy="794.324" r="7"/><circle cx="636.755" cy="813.185" r="7"/><circle cx="596.375" cy="826.892" r="7"/><circle cx="554.552" cy="835.211" r="7"/><circle cx="512" cy="838" r="7"/><circle cx="469.448" cy="835.211" r="7"/><circle cx="427.625" cy="826.892" r="7"/><circle cx="387.245" cy="813.185" r="7"/><circle cx="349" cy="794.324" r="7"/><circle cx="313.544" cy="770.633" r="7"/><circle cx="281.483" cy="742.517" r="7"/><circle cx="253.367" cy="710.456" r="7"/><circle cx="229.676" cy="675" r="7"/><circle cx="210.815" cy="636.755" r="7"/><circle cx="197.108" cy="596.375" r="7"/><circle cx="188.789" cy="554.552" r="7"/><circle cx="186" cy="512" r="7"/><circle cx="188.789" cy="469.448" r="7"/><circle cx="197.108" cy="427.625" r="7"/><circle cx="210.815" cy="387.245" r="7"/><circle cx="229.676" cy="349" r="7"/><circle cx="253.367" cy="313.544" r="7"/><circle cx="281.483" cy="281.483" r="7"/><circle cx="313.544" cy="253.367" r="7"/><circle cx="349" cy="229.676" r="7"/><circle cx="387.245" cy="210.815" r="7"/><circle cx="427.625" cy="197.108" r="7"/><circle cx="469.448" cy="188.789" r="7"/><circle cx="512" cy="150" r="5"/><circle cx="559.25" cy="153.097" r="5"/><circle cx="605.692" cy="162.335" r="5"/><circle cx="650.531" cy="177.556" r="5"/><circle cx="693" cy="198.499" r="5"/><circle cx="732.372" cy="224.806" r="5"/><circle cx="767.973" cy="256.027" r="5"/><circle cx="799.194" cy="291.628" r="5"/><circle cx="825.501" cy="331" r="5"/><circle cx="846.444" cy="373.469" r="5"/><circle cx="861.665" cy="418.308" r="5"/><circle cx="870.903" cy="464.75" r="5"/><circle cx="874" cy="512" r="5"/><circle cx="870.903" cy="559.25" r="5"/><circle cx="861.665" cy="605.692" r="5"/><circle cx="846.444" cy="650.531" r="5"/><circle cx="825.501" cy="693" r="5"/><circle cx="799.194" cy="732.372" r="5"/><circle cx="767.973" cy="767.973" r="5"/><circle cx="732.372" cy="799.194" r="5"/><circle cx="693" cy="825.501" r="5"/><circle cx="650.531" cy="846.444" r="5"/><circle cx="605.692" cy="861.665" r="5"/><circle cx="559.25" cy="870.903" r="5"/><circle cx="512" cy="874" r="5"/><circle cx="464.75" cy="870.903" r="5"/><circle cx="418.308" cy="861.665" r="5"/><circle cx="373.469" cy="846.444" r="5"/><circle cx="331" cy="825.501" r="5"/><circle cx="291.628" cy="799.194" r="5"/><circle cx="256.027" cy="767.973" r="5"/><circle cx="224.806" cy="732.372" r="5"/><circle cx="198.499" cy="693" r="5"/><circle cx="177.556" cy="650.531" r="5"/><circle cx="162.335" cy="605.692" r="5"/><circle cx="153.097" cy="559.25" r="5"/><circle cx="150" cy="512" r="5"/><circle cx="153.097" cy="464.75" r="5"/><circle cx="162.335" cy="418.308" r="5"/><circle cx="177.556" cy="373.469" r="5"/><circle cx="198.499" cy="331" r="5"/><circle cx="224.806" cy="291.628" r="5"/><circle cx="256.027" cy="256.027" r="5"/><circle cx="291.628" cy="224.806" r="5"/><circle cx="331" cy="198.499" r="5"/><circle cx="373.469" cy="177.556" r="5"/><circle cx="418.308" cy="162.335" r="5"/><circle cx="464.75" cy="153.097" r="5"/><circle cx="512" cy="114" r="3"/><circle cx="563.949" cy="117.405" r="3"/><circle cx="615.01" cy="127.562" r="3"/><circle cx="664.308" cy="144.296" r="3"/><circle cx="711" cy="167.322" r="3"/><circle cx="754.287" cy="196.245" r="3"/><circle cx="793.428" cy="230.572" r="3"/><circle cx="827.755" cy="269.713" r="3"/><circle cx="856.678" cy="313" r="3"/><circle cx="879.704" cy="359.692" r="3"/><circle cx="896.438" cy="408.99" r="3"/><circle cx="906.595" cy="460.051" r="3"/><circle cx="910" cy="512" r="3"/><circle cx="906.595" cy="563.949" r="3"/><circle cx="896.438" cy="615.01" r="3"/><circle cx="879.704" cy="664.308" r="3"/><circle cx="856.678" cy="711" r="3"/><circle cx="827.755" cy="754.287" r="3"/><circle cx="793.428" cy="793.428" r="3"/><circle cx="754.287" cy="827.755" r="3"/><circle cx="711" cy="856.678" r="3"/><circle cx="664.308" cy="879.704" r="3"/><circle cx="615.01" cy="896.438" r="3"/><circle cx="563.949" cy="906.595" r="3"/><circle cx="512" cy="910" r="3"/><circle cx="460.051" cy="906.595" r="3"/><circle cx="408.99" cy="896.438" r="3"/><circle cx="359.692" cy="879.704" r="3"/><circle cx="313" cy="856.678" r="3"/><circle cx="269.713" cy="827.755" r="3"/><circle cx="230.572" cy="793.428" r="3"/><circle cx="196.245" cy="754.287" r="3"/><circle cx="167.322" cy="711" r="3"/><circle cx="144.296" cy="664.308" r="3"/><circle cx="127.562" cy="615.01" r="3"/><circle cx="117.405" cy="563.949" r="3"/><circle cx="114" cy="512" r="3"/><circle cx="117.405" cy="460.051" r="3"/><circle cx="127.562" cy="408.99" r="3"/><circle cx="144.296" cy="359.692" r="3"/><circle cx="167.322" cy="313" r="3"/><circle cx="196.245" cy="269.713" r="3"/><circle cx="230.572" cy="230.572" r="3"/><circle cx="269.713" cy="196.245" r="3"/><circle cx="313" cy="167.322" r="3"/><circle cx="359.692" cy="144.296" r="3"/><circle cx="408.99" cy="127.562" r="3"/><circle cx="460.051" cy="117.405" r="3"/><circle cx="512" cy="78" r="1.6"/><circle cx="568.648" cy="81.713" r="1.6"/><circle cx="624.327" cy="92.788" r="1.6"/><circle cx="678.085" cy="111.036" r="1.6"/><circle cx="729" cy="136.145" r="1.6"/><circle cx="776.202" cy="167.685" r="1.6"/><circle cx="818.884" cy="205.116" r="1.6"/><circle cx="856.315" cy="247.798" r="1.6"/><circle cx="887.855" cy="295" r="1.6"/><circle cx="912.964" cy="345.915" r="1.6"/><circle cx="931.212" cy="399.673" r="1.6"/><circle cx="942.287" cy="455.352" r="1.6"/><circle cx="946" cy="512" r="1.6"/><circle cx="942.287" cy="568.648" r="1.6"/><circle cx="931.212" cy="624.327" r="1.6"/><circle cx="912.964" cy="678.085" r="1.6"/><circle cx="887.855" cy="729" r="1.6"/><circle cx="856.315" cy="776.202" r="1.6"/><circle cx="818.884" cy="818.884" r="1.6"/><circle cx="776.202" cy="856.315" r="1.6"/><circle cx="729" cy="887.855" r="1.6"/><circle cx="678.085" cy="912.964" r="1.6"/><circle cx="624.327" cy="931.212" r="1.6"/><circle cx="568.648" cy="942.287" r="1.6"/><circle cx="512" cy="946" r="1.6"/><circle cx="455.352" cy="942.287" r="1.6"/><circle cx="399.673" cy="931.212" r="1.6"/><circle cx="345.915" cy="912.964" r="1.6"/><circle cx="295" cy="887.855" r="1.6"/><circle cx="247.798" cy="856.315" r="1.6"/><circle cx="205.116" cy="818.884" r="1.6"/><circle cx="167.685" cy="776.202" r="1.6"/><circle cx="136.145" cy="729" r="1.6"/><circle cx="111.036" cy="678.085" r="1.6"/><circle cx="92.788" cy="624.327" r="1.6"/><circle cx="81.713" cy="568.648" r="1.6"/><circle cx="78" cy="512" r="1.6"/><circle cx="81.713" cy="455.352" r="1.6"/><circle cx="92.788" cy="399.673" r="1.6"/><circle cx="111.036" cy="345.915" r="1.6"/><circle cx="136.145" cy="295" r="1.6"/><circle cx="167.685" cy="247.798" r="1.6"/><circle cx="205.116" cy="205.116" r="1.6"/><circle cx="247.798" cy="167.685" r="1.6"/><circle cx="295" cy="136.145" r="1.6"/><circle cx="345.915" cy="111.036" r="1.6"/><circle cx="399.673" cy="92.788" r="1.6"/><circle cx="455.352" cy="81.713" r="1.6"/></g></svg>