<svg xmlns="http://www.w3.org/2000/svg" width="1024" height="1024" viewBox="0 0 1024 1024" fill="none" role="img" aria-label="NEUS"><g transform="translate(512 512) scale(0.973) translate(-512 -512)"><circle cx="512" cy="512" r="254" stroke="#98C0EF" stroke-width="18" fill="none"/><g fill="#98C0EF"><circle cx="512" cy="228" r="9"/><circle cx="567.406" cy="233.457" r="9"/><circle cx="620.682" cy="249.618" r="9"/><circle cx="669.782" cy="275.863" r="9"/><circle cx="712.818" cy="311.182" r="9"/><circle cx="748.137" cy="354.218" r="9"/><circle cx="774.382" cy="403.318" r="9"/><circle cx="790.543" cy="456.594" r="9"/><circle cx="796" cy="512" r="9"/><circle cx="790.543" cy="567.406" r="9"/><circle cx="774.382" cy="620.682" r="9"/><circle cx="748.137" cy="669.782" r="9"/><circle cx="712.818" cy="712.818" r="9"/><circle cx="669.782" cy="748.137" r="9"/><circle cx="620.682" cy="774.382" r="9"/><circle cx="567.406" cy="790.543" r="9"/><circle cx="512" cy="796" r="9"/><circle cx="456.594" cy="790.543" r="9"/><circle cx="403.318" cy="774.382" r="9"/><circle cx="354.218" cy="748.137" r="9"/><circle cx="311.182" cy="712.818" r="9"/><circle cx="275.863" cy="669.782" r="9"/><circle cx="249.618" cy="620.682" r="9"/><circle cx="233.457" cy="567.406" r="9"/><circle cx="228" cy="512" r="9"/><circle cx="233.457" cy="456.594" r="9"/><circle cx="249.618" cy="403.318" r="9"/><circle cx="275.863" cy="354.218" r="9"/><circle cx="311.182" cy="311.182" r="9"/><circle cx="354.218" cy="275.863" r="9"/><circle cx="403.318" cy="249.618" r="9"/><circle cx="456.594" cy="233.457" r="9"/><circle cx="512" cy="206" r="7.438"/><circle cx="571.698" cy="211.88" r="7.438"/><circle cx="629.101" cy="229.293" r="7.438"/><circle cx="682.004" cy="257.57" r="7.438"/><circle cx="728.375" cy="295.625" r="7.438"/><circle cx="766.43" cy="341.996" r="7.438"/><circle cx="794.707" cy="394.899" r="7.438"/><circle cx="812.12" cy="452.302" r="7.438"/><circle cx="818" cy="512" r="7.438"/><circle cx="812.12" cy="571.698" r="7.438"/><circle cx="794.707" cy="629.101" r="7.438"/><circle cx="766.43" cy="682.004" r="7.438"/><circle cx="728.375" cy="728.375" r="7.438"/><circle cx="682.004" cy="766.43" r="7.438"/><circle cx="629.101" cy="794.707" r="7.438"/><circle cx="571.698" cy="812.12" r="7.438"/><circle cx="512" cy="818" r="7.438"/><circle cx="452.302" cy="812.12" r="7.438"/><circle cx="394.899" cy="794.707" r="7.438"/><circle cx="341.996" cy="766.43" r="7.438"/><circle cx="295.625" cy="728.375" r="7.438"/><circle cx="257.57" cy="682.004" r="7.438"/><circle cx="229.293" cy="629.101" r="7.438"/><circle cx="211.88" cy="571.698" r="7.438"/><circle cx="206" cy="512" r="7.438"/><circle cx="211.88" cy="452.302" r="7.438"/><circle cx="229.293" cy="394.899" r="7.438"/><circle cx="257.57" cy="341.996" r="7.438"/><circle cx="295.625" cy="295.625" r="7.438"/><circle cx="341.996" cy="257.57" r="7.438"/><circle cx="394.899" cy="229.293" r="7.438"/><circle cx="452.302" cy="211.88" r="7.438"/><circle cx="512" cy="184" r="5.875"/><circle cx="575.99" cy="190.302" r="5.875"/><circle cx="637.52" cy="208.968" r="5.875"/><circle cx="694.227" cy="239.278" r="5.875"/><circle cx="743.931" cy="280.069" r="5.875"/><circle cx="784.722" cy="329.773" r="5.875"/><circle cx="815.032" cy="386.48" r="5.875"/><circle cx="833.698" cy="448.01" r="5.875"/><circle cx="840" cy="512" r="5.875"/><circle cx="833.698" cy="575.99" r="5.875"/><circle cx="815.032" cy="637.52" r="5.875"/><circle cx="784.722" cy="694.227" r="5.875"/><circle cx="743.931" cy="743.931" r="5.875"/><circle cx="694.227" cy="784.722" r="5.875"/><circle cx="637.52" cy="815.032" r="5.875"/><circle cx="575.99" cy="833.698" r="5.875"/><circle cx="512" cy="840" r="5.875"/><circle cx="448.01" cy="833.698" r="5.875"/><circle cx="386.48" cy="815.032" r="5.875"/><circle cx="329.773" cy="784.722" r="5.875"/><circle cx="280.069" cy="743.931" r="5.875"/><circle cx="239.278" cy="694.227" r="5.875"/><circle cx="208.968" cy="637.52" r="5.875"/><circle cx="190.302" cy="575.99" r="5.875"/><circle cx="184" cy="512" r="5.875"/><circle cx="190.302" cy="448.01" r="5.875"/><circle cx="208.968" cy="386.48" r="5.875"/><circle cx="239.278" cy="329.773" r="5.875"/><circle cx="280.069" cy="280.069" r="5.875"/><circle cx="329.773" cy="239.278" r="5.875"/><circle cx="386.48" cy="208.968" r="5.875"/><circle cx="448.01" cy="190.302" r="5.875"/><circle cx="512" cy="162" r="4.313"/><circle cx="580.282" cy="168.725" r="4.313"/><circle cx="645.939" cy="188.642" r="4.313"/><circle cx="706.45" cy="220.986" r="4.313"/><circle cx="759.487" cy="264.513" r="4.313"/><circle cx="803.014" cy="317.55" r="4.313"/><circle cx="835.358" cy="378.061" r="4.313"/><circle cx="855.275" cy="443.718" r="4.313"/><circle cx="862" cy="512" r="4.313"/><circle cx="855.275" cy="580.282" r="4.313"/><circle cx="835.358" cy="645.939" r="4.313"/><circle cx="803.014" cy="706.45" r="4.313"/><circle cx="759.487" cy="759.487" r="4.313"/><circle cx="706.45" cy="803.014" r="4.313"/><circle cx="645.939" cy="835.358" r="4.313"/><circle cx="580.282" cy="855.275" r="4.313"/><circle cx="512" cy="862" r="4.313"/><circle cx="443.718" cy="855.275" r="4.313"/><circle cx="378.061" cy="835.358" r="4.313"/><circle cx="317.55" cy="803.014" r="4.313"/><circle cx="264.513" cy="759.487" r="4.313"/><circle cx="220.986" cy="706.45" r="4.313"/><circle cx="188.642" cy="645.939" r="4.313"/><circle cx="168.725" cy="580.282" r="4.313"/><circle cx="162" cy="512" r="4.313"/><circle cx="168.725" cy="443.718" r="4.313"/><circle cx="188.642" cy="378.061" r="4.313"/><circle cx="220.986" cy="317.55" r="4.313"/><circle cx="264.513" cy="264.513" r="4.313"/><circle cx="317.55" cy="220.986" r="4.313"/><circle cx="378.061" cy="188.642" r="4.313"/><circle cx="443.718" cy="168.725" r="4.313"/><circle cx="512" cy="140" r="3.5"/><circle cx="584.574" cy="147.148" r="3.5"/><circle cx="654.358" cy="168.317" r="3.5"/><circle cx="718.672" cy="202.693" r="3.5"/><circle cx="775.044" cy="248.956" r="3.5"/><circle cx="821.307" cy="305.328" r="3.5"/><circle cx="855.683" cy="369.642" r="3.5"/><circle cx="876.852" cy="439.426" r="3.5"/><circle cx="884" cy="512" r="3.5"/><circle cx="876.852" cy="584.574" r="3.5"/><circle cx="855.683" cy="654.358" r="3.5"/><circle cx="821.307" cy="718.672" r="3.5"/><circle cx="775.044" cy="775.044" r="3.5"/><circle cx="718.672" cy="821.307" r="3.5"/><circle cx="654.358" cy="855.683" r="3.5"/><circle cx="584.574" cy="876.852" r="3.5"/><circle cx="512" cy="884" r="3.5"/><circle cx="439.426" cy="876.852" r="3.5"/><circle cx="369.642" cy="855.683" r="3.5"/><circle cx="305.328" cy="821.307" r="3.5"/><circle cx="248.956" cy="775.044" r="3.5"/><circle cx="202.693" cy="718.672" r="3.5"/><circle cx="168.317" cy="654.358" r="3.5"/><circle cx="147.148" cy="584.574" r="3.5"/><circle cx="140" cy="512" r="3.5"/><circle cx="147.148" cy="439.426" r="3.5"/><circle cx="168.317" cy="369.642" r="3.5"/><circle cx="202.693" cy="305.328" r="3.5"/><circle cx="248.956" cy="248.956" r="3.5"/><circle cx="305.328" cy="202.693" r="3.5"/><circle cx="369.642" cy="168.317" r="3.5"/><circle cx="439.426" cy="147.148" r="3.5"/></g></g></svg>