<svg xmlns="http://www.w3.org/2000/svg" width="1024" height="1024" viewBox="0 0 1024 1024" fill="none" role="img" aria-label="NEUS"><g transform="translate(512 512) scale(0.973) translate(-512 -512)"><circle cx="512" cy="512" r="254" stroke="#98C0EF" stroke-width="16" fill="none"/><g fill="#98C0EF"><circle cx="512" cy="228" r="7"/><circle cx="549.069" cy="230.43" r="7"/><circle cx="585.505" cy="237.677" r="7"/><circle cx="620.682" cy="249.618" r="7"/><circle cx="654" cy="266.049" r="7"/><circle cx="684.888" cy="286.688" r="7"/><circle cx="712.818" cy="311.182" r="7"/><circle cx="737.312" cy="339.112" r="7"/><circle cx="757.951" cy="370" r="7"/><circle cx="774.382" cy="403.318" r="7"/><circle cx="786.323" cy="438.495" r="7"/><circle cx="793.57" cy="474.931" r="7"/><circle cx="796" cy="512" r="7"/><circle cx="793.57" cy="549.069" r="7"/><circle cx="786.323" cy="585.505" r="7"/><circle cx="774.382" cy="620.682" r="7"/><circle cx="757.951" cy="654" r="7"/><circle cx="737.312" cy="684.888" r="7"/><circle cx="712.818" cy="712.818" r="7"/><circle cx="684.888" cy="737.312" r="7"/><circle cx="654" cy="757.951" r="7"/><circle cx="620.682" cy="774.382" r="7"/><circle cx="585.505" cy="786.323" r="7"/><circle cx="549.069" cy="793.57" r="7"/><circle cx="512" cy="796" r="7"/><circle cx="474.931" cy="793.57" r="7"/><circle cx="438.495" cy="786.323" r="7"/><circle cx="403.318" cy="774.382" r="7"/><circle cx="370" cy="757.951" r="7"/><circle cx="339.112" cy="737.312" r="7"/><circle cx="311.182" cy="712.818" r="7"/><circle cx="286.688" cy="684.888" r="7"/><circle cx="266.049" cy="654" r="7"/><circle cx="249.618" cy="620.682" r="7"/><circle cx="237.677" cy="585.505" r="7"/><circle cx="230.43" cy="549.069" r="7"/><circle cx="228" cy="512" r="7"/><circle cx="230.43" cy="474.931" r="7"/><circle cx="237.677" cy="438.495" r="7"/><circle cx="249.618" cy="403.318" r="7"/><circle cx="266.049" cy="370" r="7"/><circle cx="286.688" cy="339.112" r="7"/><circle cx="311.182" cy="311.182" r="7"/><circle cx="339.112" cy="286.688" r="7"/><circle cx="370" cy="266.049" r="7"/><circle cx="403.318" cy="249.618" r="7"/><circle cx="438.495" cy="237.677" r="7"/><circle cx="474.931" cy="230.43" r="7"/><circle cx="512" cy="206" r="5.75"/><circle cx="551.941" cy="208.618" r="5.75"/><circle cx="591.199" cy="216.427" r="5.75"/><circle cx="629.101" cy="229.293" r="5.75"/><circle cx="665" cy="246.996" r="5.75"/><circle cx="698.281" cy="269.234" r="5.75"/><circle cx="728.375" cy="295.625" r="5.75"/><circle cx="754.766" cy="325.719" r="5.75"/><circle cx="777.004" cy="359" r="5.75"/><circle cx="794.707" cy="394.899" r="5.75"/><circle cx="807.573" cy="432.801" r="5.75"/><circle cx="815.382" cy="472.059" r="5.75"/><circle cx="818" cy="512" r="5.75"/><circle cx="815.382" cy="551.941" r="5.75"/><circle cx="807.573" cy="591.199" r="5.75"/><circle cx="794.707" cy="629.101" r="5.75"/><circle cx="777.004" cy="665" r="5.75"/><circle cx="754.766" cy="698.281" r="5.75"/><circle cx="728.375" cy="728.375" r="5.75"/><circle cx="698.281" cy="754.766" r="5.75"/><circle cx="665" cy="777.004" r="5.75"/><circle cx="629.101" cy="794.707" r="5.75"/><circle cx="591.199" cy="807.573" r="5.75"/><circle cx="551.941" cy="815.382" r="5.75"/><circle cx="512" cy="818" r="5.75"/><circle cx="472.059" cy="815.382" r="5.75"/><circle cx="432.801" cy="807.573" r="5.75"/><circle cx="394.899" cy="794.707" r="5.75"/><circle cx="359" cy="777.004" r="5.75"/><circle cx="325.719" cy="754.766" r="5.75"/><circle cx="295.625" cy="728.375" r="5.75"/><circle cx="269.234" cy="698.281" r="5.75"/><circle cx="246.996" cy="665" r="5.75"/><circle cx="229.293" cy="629.101" r="5.75"/><circle cx="216.427" cy="591.199" r="5.75"/><circle cx="208.618" cy="551.941" r="5.75"/><circle cx="206" cy="512" r="5.75"/><circle cx="208.618" cy="472.059" r="5.75"/><circle cx="216.427" cy="432.801" r="5.75"/><circle cx="229.293" cy="394.899" r="5.75"/><circle cx="246.996" cy="359" r="5.75"/><circle cx="269.234" cy="325.719" r="5.75"/><circle cx="295.625" cy="295.625" r="5.75"/><circle cx="325.719" cy="269.234" r="5.75"/><circle cx="359" cy="246.996" r="5.75"/><circle cx="394.899" cy="229.293" r="5.75"/><circle cx="432.801" cy="216.427" r="5.75"/><circle cx="472.059" cy="208.618" r="5.75"/><circle cx="512" cy="184" r="4.5"/><circle cx="554.813" cy="186.806" r="4.5"/><circle cx="596.893" cy="195.176" r="4.5"/><circle cx="637.52" cy="208.968" r="4.5"/><circle cx="676" cy="227.944" r="4.5"/><circle cx="711.674" cy="251.78" r="4.5"/><circle cx="743.931" cy="280.069" r="4.5"/><circle cx="772.22" cy="312.326" r="4.5"/><circle cx="796.056" cy="348" r="4.5"/><circle cx="815.032" cy="386.48" r="4.5"/><circle cx="828.824" cy="427.107" r="4.5"/><circle cx="837.194" cy="469.187" r="4.5"/><circle cx="840" cy="512" r="4.5"/><circle cx="837.194" cy="554.813" r="4.5"/><circle cx="828.824" cy="596.893" r="4.5"/><circle cx="815.032" cy="637.52" r="4.5"/><circle cx="796.056" cy="676" r="4.5"/><circle cx="772.22" cy="711.674" r="4.5"/><circle cx="743.931" cy="743.931" r="4.5"/><circle cx="711.674" cy="772.22" r="4.5"/><circle cx="676" cy="796.056" r="4.5"/><circle cx="637.52" cy="815.032" r="4.5"/><circle cx="596.893" cy="828.824" r="4.5"/><circle cx="554.813" cy="837.194" r="4.5"/><circle cx="512" cy="840" r="4.5"/><circle cx="469.187" cy="837.194" r="4.5"/><circle cx="427.107" cy="828.824" r="4.5"/><circle cx="386.48" cy="815.032" r="4.5"/><circle cx="348" cy="796.056" r="4.5"/><circle cx="312.326" cy="772.22" r="4.5"/><circle cx="280.069" cy="743.931" r="4.5"/><circle cx="251.78" cy="711.674" r="4.5"/><circle cx="227.944" cy="676" r="4.5"/><circle cx="208.968" cy="637.52" r="4.5"/><circle cx="195.176" cy="596.893" r="4.5"/><circle cx="186.806" cy="554.813" r="4.5"/><circle cx="184" cy="512" r="4.5"/><circle cx="186.806" cy="469.187" r="4.5"/><circle cx="195.176" cy="427.107" r="4.5"/><circle cx="208.968" cy="386.48" r="4.5"/><circle cx="227.944" cy="348" r="4.5"/><circle cx="251.78" cy="312.326" r="4.5"/><circle cx="280.069" cy="280.069" r="4.5"/><circle cx="312.326" cy="251.78" r="4.5"/><circle cx="348" cy="227.944" r="4.5"/><circle cx="386.48" cy="208.968" r="4.5"/><circle cx="427.107" cy="195.176" r="4.5"/><circle cx="469.187" cy="186.806" r="4.5"/><circle cx="512" cy="162" r="3.25"/><circle cx="557.684" cy="164.994" r="3.25"/><circle cx="602.587" cy="173.926" r="3.25"/><circle cx="645.939" cy="188.642" r="3.25"/><circle cx="687" cy="208.891" r="3.25"/><circle cx="725.067" cy="234.326" r="3.25"/><circle cx="759.487" cy="264.513" r="3.25"/><circle cx="789.674" cy="298.933" r="3.25"/><circle cx="815.109" cy="337" r="3.25"/><circle cx="835.358" cy="378.061" r="3.25"/><circle cx="850.074" cy="421.413" r="3.25"/><circle cx="859.006" cy="466.316" r="3.25"/><circle cx="862" cy="512" r="3.25"/><circle cx="859.006" cy="557.684" r="3.25"/><circle cx="850.074" cy="602.587" r="3.25"/><circle cx="835.358" cy="645.939" r="3.25"/><circle cx="815.109" cy="687" r="3.25"/><circle cx="789.674" cy="725.067" r="3.25"/><circle cx="759.487" cy="759.487" r="3.25"/><circle cx="725.067" cy="789.674" r="3.25"/><circle cx="687" cy="815.109" r="3.25"/><circle cx="645.939" cy="835.358" r="3.25"/><circle cx="602.587" cy="850.074" r="3.25"/><circle cx="557.684" cy="859.006" r="3.25"/><circle cx="512" cy="862" r="3.25"/><circle cx="466.316" cy="859.006" r="3.25"/><circle cx="421.413" cy="850.074" r="3.25"/><circle cx="378.061" cy="835.358" r="3.25"/><circle cx="337" cy="815.109" r="3.25"/><circle cx="298.933" cy="789.674" r="3.25"/><circle cx="264.513" cy="759.487" r="3.25"/><circle cx="234.326" cy="725.067" r="3.25"/><circle cx="208.891" cy="687" r="3.25"/><circle cx="188.642" cy="645.939" r="3.25"/><circle cx="173.926" cy="602.587" r="3.25"/><circle cx="164.994" cy="557.684" r="3.25"/><circle cx="162" cy="512" r="3.25"/><circle cx="164.994" cy="466.316" r="3.25"/><circle cx="173.926" cy="421.413" r="3.25"/><circle cx="188.642" cy="378.061" r="3.25"/><circle cx="208.891" cy="337" r="3.25"/><circle cx="234.326" cy="298.933" r="3.25"/><circle cx="264.513" cy="264.513" r="3.25"/><circle cx="298.933" cy="234.326" r="3.25"/><circle cx="337" cy="208.891" r="3.25"/><circle cx="378.061" cy="188.642" r="3.25"/><circle cx="421.413" cy="173.926" r="3.25"/><circle cx="466.316" cy="164.994" r="3.25"/><circle cx="512" cy="140" r="3.5"/><circle cx="560.556" cy="143.183" r="3.5"/><circle cx="608.281" cy="152.676" r="3.5"/><circle cx="654.358" cy="168.317" r="3.5"/><circle cx="698" cy="189.839" r="3.5"/><circle cx="738.459" cy="216.873" r="3.5"/><circle cx="775.044" cy="248.956" r="3.5"/><circle cx="807.127" cy="285.541" r="3.5"/><circle cx="834.161" cy="326" r="3.5"/><circle cx="855.683" cy="369.642" r="3.5"/><circle cx="871.324" cy="415.719" r="3.5"/><circle cx="880.817" cy="463.444" r="3.5"/><circle cx="884" cy="512" r="3.5"/><circle cx="880.817" cy="560.556" r="3.5"/><circle cx="871.324" cy="608.281" r="3.5"/><circle cx="855.683" cy="654.358" r="3.5"/><circle cx="834.161" cy="698" r="3.5"/><circle cx="807.127" cy="738.459" r="3.5"/><circle cx="775.044" cy="775.044" r="3.5"/><circle cx="738.459" cy="807.127" r="3.5"/><circle cx="698" cy="834.161" r="3.5"/><circle cx="654.358" cy="855.683" r="3.5"/><circle cx="608.281" cy="871.324" r="3.5"/><circle cx="560.556" cy="880.817" r="3.5"/><circle cx="512" cy="884" r="3.5"/><circle cx="463.444" cy="880.817" r="3.5"/><circle cx="415.719" cy="871.324" r="3.5"/><circle cx="369.642" cy="855.683" r="3.5"/><circle cx="326" cy="834.161" r="3.5"/><circle cx="285.541" cy="807.127" r="3.5"/><circle cx="248.956" cy="775.044" r="3.5"/><circle cx="216.873" cy="738.459" r="3.5"/><circle cx="189.839" cy="698" r="3.5"/><circle cx="168.317" cy="654.358" r="3.5"/><circle cx="152.676" cy="608.281" r="3.5"/><circle cx="143.183" cy="560.556" r="3.5"/><circle cx="140" cy="512" r="3.5"/><circle cx="143.183" cy="463.444" r="3.5"/><circle cx="152.676" cy="415.719" r="3.5"/><circle cx="168.317" cy="369.642" r="3.5"/><circle cx="189.839" cy="326" r="3.5"/><circle cx="216.873" cy="285.541" r="3.5"/><circle cx="248.956" cy="248.956" r="3.5"/><circle cx="285.541" cy="216.873" r="3.5"/><circle cx="326" cy="189.839" r="3.5"/><circle cx="369.642" cy="168.317" r="3.5"/><circle cx="415.719" cy="152.676" r="3.5"/><circle cx="463.444" cy="143.183" r="3.5"/></g></g></svg>