<svg xmlns="http://www.w3.org/2000/svg" width="1024" height="1024" viewBox="0 0 1024 1024" fill="none" role="img" aria-label="NEUS"><circle cx="512" cy="512" r="254" stroke="#98C0EF" stroke-width="14" fill="none"/><g fill="#98C0EF"><circle cx="512" cy="234" r="6.75"/><circle cx="532.775" cy="234.777" r="6.75"/><circle cx="553.434" cy="237.105" r="6.75"/><circle cx="573.861" cy="240.97" r="6.75"/><circle cx="593.942" cy="246.351" r="6.75"/><circle cx="613.565" cy="253.217" r="6.75"/><circle cx="632.62" cy="261.531" r="6.75"/><circle cx="651" cy="271.245" r="6.75"/><circle cx="668.603" cy="282.306" r="6.75"/><circle cx="685.33" cy="294.651" r="6.75"/><circle cx="701.088" cy="308.212" r="6.75"/><circle cx="715.788" cy="322.912" r="6.75"/><circle cx="729.349" cy="338.67" r="6.75"/><circle cx="741.694" cy="355.397" r="6.75"/><circle cx="752.755" cy="373" r="6.75"/><circle cx="762.469" cy="391.38" r="6.75"/><circle cx="770.783" cy="410.435" r="6.75"/><circle cx="777.649" cy="430.058" r="6.75"/><circle cx="783.03" cy="450.139" r="6.75"/><circle cx="786.895" cy="470.566" r="6.75"/><circle cx="789.223" cy="491.225" r="6.75"/><circle cx="790" cy="512" r="6.75"/><circle cx="789.223" cy="532.775" r="6.75"/><circle cx="786.895" cy="553.434" r="6.75"/><circle cx="783.03" cy="573.861" r="6.75"/><circle cx="777.649" cy="593.942" r="6.75"/><circle cx="770.783" cy="613.565" r="6.75"/><circle cx="762.469" cy="632.62" r="6.75"/><circle cx="752.755" cy="651" r="6.75"/><circle cx="741.694" cy="668.603" r="6.75"/><circle cx="729.349" cy="685.33" r="6.75"/><circle cx="715.788" cy="701.088" r="6.75"/><circle cx="701.088" cy="715.788" r="6.75"/><circle cx="685.33" cy="729.349" r="6.75"/><circle cx="668.603" cy="741.694" r="6.75"/><circle cx="651" cy="752.755" r="6.75"/><circle cx="632.62" cy="762.469" r="6.75"/><circle cx="613.565" cy="770.783" r="6.75"/><circle cx="593.942" cy="777.649" r="6.75"/><circle cx="573.861" cy="783.03" r="6.75"/><circle cx="553.434" cy="786.895" r="6.75"/><circle cx="532.775" cy="789.223" r="6.75"/><circle cx="512" cy="790" r="6.75"/><circle cx="491.225" cy="789.223" r="6.75"/><circle cx="470.566" cy="786.895" r="6.75"/><circle cx="450.139" cy="783.03" r="6.75"/><circle cx="430.058" cy="777.649" r="6.75"/><circle cx="410.435" cy="770.783" r="6.75"/><circle cx="391.38" cy="762.469" r="6.75"/><circle cx="373" cy="752.755" r="6.75"/><circle cx="355.397" cy="741.694" r="6.75"/><circle cx="338.67" cy="729.349" r="6.75"/><circle cx="322.912" cy="715.788" r="6.75"/><circle cx="308.212" cy="701.088" r="6.75"/><circle cx="294.651" cy="685.33" r="6.75"/><circle cx="282.306" cy="668.603" r="6.75"/><circle cx="271.245" cy="651" r="6.75"/><circle cx="261.531" cy="632.62" r="6.75"/><circle cx="253.217" cy="613.565" r="6.75"/><circle cx="246.351" cy="593.942" r="6.75"/><circle cx="240.97" cy="573.861" r="6.75"/><circle cx="237.105" cy="553.434" r="6.75"/><circle cx="234.777" cy="532.775" r="6.75"/><circle cx="234" cy="512" r="6.75"/><circle cx="234.777" cy="491.225" r="6.75"/><circle cx="237.105" cy="470.566" r="6.75"/><circle cx="240.97" cy="450.139" r="6.75"/><circle cx="246.351" cy="430.058" r="6.75"/><circle cx="253.217" cy="410.435" r="6.75"/><circle cx="261.531" cy="391.38" r="6.75"/><circle cx="271.245" cy="373" r="6.75"/><circle cx="282.306" cy="355.397" r="6.75"/><circle cx="294.651" cy="338.67" r="6.75"/><circle cx="308.212" cy="322.912" r="6.75"/><circle cx="322.912" cy="308.212" r="6.75"/><circle cx="338.67" cy="294.651" r="6.75"/><circle cx="355.397" cy="282.306" r="6.75"/><circle cx="373" cy="271.245" r="6.75"/><circle cx="391.38" cy="261.531" r="6.75"/><circle cx="410.435" cy="253.217" r="6.75"/><circle cx="430.058" cy="246.351" r="6.75"/><circle cx="450.139" cy="240.97" r="6.75"/><circle cx="470.566" cy="237.105" r="6.75"/><circle cx="491.225" cy="234.777" r="6.75"/><circle cx="522.941" cy="219.605" r="6.198"/><circle cx="544.761" cy="221.24" r="6.198"/><circle cx="566.398" cy="224.501" r="6.198"/><circle cx="587.73" cy="229.37" r="6.198"/><circle cx="608.64" cy="235.82" r="6.198"/><circle cx="629.008" cy="243.814" r="6.198"/><circle cx="648.723" cy="253.308" r="6.198"/><circle cx="667.673" cy="264.248" r="6.198"/><circle cx="685.752" cy="276.575" r="6.198"/><circle cx="702.859" cy="290.217" r="6.198"/><circle cx="718.899" cy="305.101" r="6.198"/><circle cx="733.783" cy="321.141" r="6.198"/><circle cx="747.425" cy="338.248" r="6.198"/><circle cx="759.752" cy="356.327" r="6.198"/><circle cx="770.692" cy="375.277" r="6.198"/><circle cx="780.186" cy="394.992" r="6.198"/><circle cx="788.18" cy="415.36" r="6.198"/><circle cx="794.63" cy="436.27" r="6.198"/><circle cx="799.499" cy="457.602" r="6.198"/><circle cx="802.76" cy="479.239" r="6.198"/><circle cx="804.395" cy="501.059" r="6.198"/><circle cx="804.395" cy="522.941" r="6.198"/><circle cx="802.76" cy="544.761" r="6.198"/><circle cx="799.499" cy="566.398" r="6.198"/><circle cx="794.63" cy="587.73" r="6.198"/><circle cx="788.18" cy="608.64" r="6.198"/><circle cx="780.186" cy="629.008" r="6.198"/><circle cx="770.692" cy="648.723" r="6.198"/><circle cx="759.752" cy="667.673" r="6.198"/><circle cx="747.425" cy="685.752" r="6.198"/><circle cx="733.783" cy="702.859" r="6.198"/><circle cx="718.899" cy="718.899" r="6.198"/><circle cx="702.859" cy="733.783" r="6.198"/><circle cx="685.752" cy="747.425" r="6.198"/><circle cx="667.673" cy="759.752" r="6.198"/><circle cx="648.723" cy="770.692" r="6.198"/><circle cx="629.008" cy="780.186" r="6.198"/><circle cx="608.64" cy="788.18" r="6.198"/><circle cx="587.73" cy="794.63" r="6.198"/><circle cx="566.398" cy="799.499" r="6.198"/><circle cx="544.761" cy="802.76" r="6.198"/><circle cx="522.941" cy="804.395" r="6.198"/><circle cx="501.059" cy="804.395" r="6.198"/><circle cx="479.239" cy="802.76" r="6.198"/><circle cx="457.602" cy="799.499" r="6.198"/><circle cx="436.27" cy="794.63" r="6.198"/><circle cx="415.36" cy="788.18" r="6.198"/><circle cx="394.992" cy="780.186" r="6.198"/><circle cx="375.277" cy="770.692" r="6.198"/><circle cx="356.327" cy="759.752" r="6.198"/><circle cx="338.248" cy="747.425" r="6.198"/><circle cx="321.141" cy="733.783" r="6.198"/><circle cx="305.101" cy="718.899" r="6.198"/><circle cx="290.217" cy="702.859" r="6.198"/><circle cx="276.575" cy="685.752" r="6.198"/><circle cx="264.248" cy="667.673" r="6.198"/><circle cx="253.308" cy="648.723" r="6.198"/><circle cx="243.814" cy="629.008" r="6.198"/><circle cx="235.82" cy="608.64" r="6.198"/><circle cx="229.37" cy="587.73" r="6.198"/><circle cx="224.501" cy="566.398" r="6.198"/><circle cx="221.24" cy="544.761" r="6.198"/><circle cx="219.605" cy="522.941" r="6.198"/><circle cx="219.605" cy="501.059" r="6.198"/><circle cx="221.24" cy="479.239" r="6.198"/><circle cx="224.501" cy="457.602" r="6.198"/><circle cx="229.37" cy="436.27" r="6.198"/><circle cx="235.82" cy="415.36" r="6.198"/><circle cx="243.814" cy="394.992" r="6.198"/><circle cx="253.308" cy="375.277" r="6.198"/><circle cx="264.248" cy="356.327" r="6.198"/><circle cx="276.575" cy="338.248" r="6.198"/><circle cx="290.217" cy="321.141" r="6.198"/><circle cx="305.101" cy="305.101" r="6.198"/><circle cx="321.141" cy="290.217" r="6.198"/><circle cx="338.248" cy="276.575" r="6.198"/><circle cx="356.327" cy="264.248" r="6.198"/><circle cx="375.277" cy="253.308" r="6.198"/><circle cx="394.992" cy="243.814" r="6.198"/><circle cx="415.36" cy="235.82" r="6.198"/><circle cx="436.27" cy="229.37" r="6.198"/><circle cx="457.602" cy="224.501" r="6.198"/><circle cx="479.239" cy="221.24" r="6.198"/><circle cx="501.059" cy="219.605" r="6.198"/><circle cx="512" cy="204.8" r="5.659"/><circle cx="534.957" cy="205.659" r="5.659"/><circle cx="557.786" cy="208.231" r="5.659"/><circle cx="580.358" cy="212.502" r="5.659"/><circle cx="602.549" cy="218.448" r="5.659"/><circle cx="624.233" cy="226.036" r="5.659"/><circle cx="645.289" cy="235.222" r="5.659"/><circle cx="665.6" cy="245.957" r="5.659"/><circle cx="685.052" cy="258.179" r="5.659"/><circle cx="703.536" cy="271.821" r="5.659"/><circle cx="720.949" cy="286.806" r="5.659"/><circle cx="737.194" cy="303.051" r="5.659"/><circle cx="752.179" cy="320.464" r="5.659"/><circle cx="765.821" cy="338.948" r="5.659"/><circle cx="778.043" cy="358.4" r="5.659"/><circle cx="788.778" cy="378.711" r="5.659"/><circle cx="797.964" cy="399.767" r="5.659"/><circle cx="805.552" cy="421.451" r="5.659"/><circle cx="811.498" cy="443.642" r="5.659"/><circle cx="815.769" cy="466.214" r="5.659"/><circle cx="818.341" cy="489.043" r="5.659"/><circle cx="819.2" cy="512" r="5.659"/><circle cx="818.341" cy="534.957" r="5.659"/><circle cx="815.769" cy="557.786" r="5.659"/><circle cx="811.498" cy="580.358" r="5.659"/><circle cx="805.552" cy="602.549" r="5.659"/><circle cx="797.964" cy="624.233" r="5.659"/><circle cx="788.778" cy="645.289" r="5.659"/><circle cx="778.043" cy="665.6" r="5.659"/><circle cx="765.821" cy="685.052" r="5.659"/><circle cx="752.179" cy="703.536" r="5.659"/><circle cx="737.194" cy="720.949" r="5.659"/><circle cx="720.949" cy="737.194" r="5.659"/><circle cx="703.536" cy="752.179" r="5.659"/><circle cx="685.052" cy="765.821" r="5.659"/><circle cx="665.6" cy="778.043" r="5.659"/><circle cx="645.289" cy="788.778" r="5.659"/><circle cx="624.233" cy="797.964" r="5.659"/><circle cx="602.549" cy="805.552" r="5.659"/><circle cx="580.358" cy="811.498" r="5.659"/><circle cx="557.786" cy="815.769" r="5.659"/><circle cx="534.957" cy="818.341" r="5.659"/><circle cx="512" cy="819.2" r="5.659"/><circle cx="489.043" cy="818.341" r="5.659"/><circle cx="466.214" cy="815.769" r="5.659"/><circle cx="443.642" cy="811.498" r="5.659"/><circle cx="421.451" cy="805.552" r="5.659"/><circle cx="399.767" cy="797.964" r="5.659"/><circle cx="378.711" cy="788.778" r="5.659"/><circle cx="358.4" cy="778.043" r="5.659"/><circle cx="338.948" cy="765.821" r="5.659"/><circle cx="320.464" cy="752.179" r="5.659"/><circle cx="303.051" cy="737.194" r="5.659"/><circle cx="286.806" cy="720.949" r="5.659"/><circle cx="271.821" cy="703.536" r="5.659"/><circle cx="258.179" cy="685.052" r="5.659"/><circle cx="245.957" cy="665.6" r="5.659"/><circle cx="235.222" cy="645.289" r="5.659"/><circle cx="226.036" cy="624.233" r="5.659"/><circle cx="218.448" cy="602.549" r="5.659"/><circle cx="212.502" cy="580.358" r="5.659"/><circle cx="208.231" cy="557.786" r="5.659"/><circle cx="205.659" cy="534.957" r="5.659"/><circle cx="204.8" cy="512" r="5.659"/><circle cx="205.659" cy="489.043" r="5.659"/><circle cx="208.231" cy="466.214" r="5.659"/><circle cx="212.502" cy="443.642" r="5.659"/><circle cx="218.448" cy="421.451" r="5.659"/><circle cx="226.036" cy="399.767" r="5.659"/><circle cx="235.222" cy="378.711" r="5.659"/><circle cx="245.957" cy="358.4" r="5.659"/><circle cx="258.179" cy="338.948" r="5.659"/><circle cx="271.821" cy="320.464" r="5.659"/><circle cx="286.806" cy="303.051" r="5.659"/><circle cx="303.051" cy="286.806" r="5.659"/><circle cx="320.464" cy="271.821" r="5.659"/><circle cx="338.948" cy="258.179" r="5.659"/><circle cx="358.4" cy="245.957" r="5.659"/><circle cx="378.711" cy="235.222" r="5.659"/><circle cx="399.767" cy="226.036" r="5.659"/><circle cx="421.451" cy="218.448" r="5.659"/><circle cx="443.642" cy="212.502" r="5.659"/><circle cx="466.214" cy="208.231" r="5.659"/><circle cx="489.043" cy="205.659" r="5.659"/><circle cx="524.032" cy="190.425" r="5.131"/><circle cx="548.03" cy="192.223" r="5.131"/><circle cx="571.826" cy="195.81" r="5.131"/><circle cx="595.288" cy="201.165" r="5.131"/><circle cx="618.284" cy="208.258" r="5.131"/><circle cx="640.685" cy="217.05" r="5.131"/><circle cx="662.367" cy="227.492" r="5.131"/><circle cx="683.208" cy="239.524" r="5.131"/><circle cx="703.091" cy="253.08" r="5.131"/><circle cx="721.906" cy="268.085" r="5.131"/><circle cx="739.547" cy="284.453" r="5.131"/><circle cx="755.915" cy="302.094" r="5.131"/><circle cx="770.92" cy="320.909" r="5.131"/><circle cx="784.476" cy="340.792" r="5.131"/><circle cx="796.508" cy="361.633" r="5.131"/><circle cx="806.95" cy="383.315" r="5.131"/><circle cx="815.742" cy="405.716" r="5.131"/><circle cx="822.835" cy="428.712" r="5.131"/><circle cx="828.19" cy="452.174" r="5.131"/><circle cx="831.777" cy="475.97" r="5.131"/><circle cx="833.575" cy="499.968" r="5.131"/><circle cx="833.575" cy="524.032" r="5.131"/><circle cx="831.777" cy="548.03" r="5.131"/><circle cx="828.19" cy="571.826" r="5.131"/><circle cx="822.835" cy="595.288" r="5.131"/><circle cx="815.742" cy="618.284" r="5.131"/><circle cx="806.95" cy="640.685" r="5.131"/><circle cx="796.508" cy="662.367" r="5.131"/><circle cx="784.476" cy="683.208" r="5.131"/><circle cx="770.92" cy="703.091" r="5.131"/><circle cx="755.915" cy="721.906" r="5.131"/><circle cx="739.547" cy="739.547" r="5.131"/><circle cx="721.906" cy="755.915" r="5.131"/><circle cx="703.091" cy="770.92" r="5.131"/><circle cx="683.208" cy="784.476" r="5.131"/><circle cx="662.367" cy="796.508" r="5.131"/><circle cx="640.685" cy="806.95" r="5.131"/><circle cx="618.284" cy="815.742" r="5.131"/><circle cx="595.288" cy="822.835" r="5.131"/><circle cx="571.826" cy="828.19" r="5.131"/><circle cx="548.03" cy="831.777" r="5.131"/><circle cx="524.032" cy="833.575" r="5.131"/><circle cx="499.968" cy="833.575" r="5.131"/><circle cx="475.97" cy="831.777" r="5.131"/><circle cx="452.174" cy="828.19" r="5.131"/><circle cx="428.712" cy="822.835" r="5.131"/><circle cx="405.716" cy="815.742" r="5.131"/><circle cx="383.315" cy="806.95" r="5.131"/><circle cx="361.633" cy="796.508" r="5.131"/><circle cx="340.792" cy="784.476" r="5.131"/><circle cx="320.909" cy="770.92" r="5.131"/><circle cx="302.094" cy="755.915" r="5.131"/><circle cx="284.453" cy="739.547" r="5.131"/><circle cx="268.085" cy="721.906" r="5.131"/><circle cx="253.08" cy="703.091" r="5.131"/><circle cx="239.524" cy="683.208" r="5.131"/><circle cx="227.492" cy="662.367" r="5.131"/><circle cx="217.05" cy="640.685" r="5.131"/><circle cx="208.258" cy="618.284" r="5.131"/><circle cx="201.165" cy="595.288" r="5.131"/><circle cx="195.81" cy="571.826" r="5.131"/><circle cx="192.223" cy="548.03" r="5.131"/><circle cx="190.425" cy="524.032" r="5.131"/><circle cx="190.425" cy="499.968" r="5.131"/><circle cx="192.223" cy="475.97" r="5.131"/><circle cx="195.81" cy="452.174" r="5.131"/><circle cx="201.165" cy="428.712" r="5.131"/><circle cx="208.258" cy="405.716" r="5.131"/><circle cx="217.05" cy="383.315" r="5.131"/><circle cx="227.492" cy="361.633" r="5.131"/><circle cx="239.524" cy="340.792" r="5.131"/><circle cx="253.08" cy="320.909" r="5.131"/><circle cx="268.085" cy="302.094" r="5.131"/><circle cx="284.453" cy="284.453" r="5.131"/><circle cx="302.094" cy="268.085" r="5.131"/><circle cx="320.909" cy="253.08" r="5.131"/><circle cx="340.792" cy="239.524" r="5.131"/><circle cx="361.633" cy="227.492" r="5.131"/><circle cx="383.315" cy="217.05" r="5.131"/><circle cx="405.716" cy="208.258" r="5.131"/><circle cx="428.712" cy="201.165" r="5.131"/><circle cx="452.174" cy="195.81" r="5.131"/><circle cx="475.97" cy="192.223" r="5.131"/><circle cx="499.968" cy="190.425" r="5.131"/><circle cx="512" cy="175.6" r="4.618"/><circle cx="537.139" cy="176.541" r="4.618"/><circle cx="562.138" cy="179.357" r="4.618"/><circle cx="586.856" cy="184.034" r="4.618"/><circle cx="611.156" cy="190.545" r="4.618"/><circle cx="634.901" cy="198.854" r="4.618"/><circle cx="657.958" cy="208.914" r="4.618"/><circle cx="680.2" cy="220.669" r="4.618"/><circle cx="701.501" cy="234.053" r="4.618"/><circle cx="721.742" cy="248.992" r="4.618"/><circle cx="740.81" cy="265.401" r="4.618"/><circle cx="758.599" cy="283.19" r="4.618"/><circle cx="775.008" cy="302.258" r="4.618"/><circle cx="789.947" cy="322.499" r="4.618"/><circle cx="803.331" cy="343.8" r="4.618"/><circle cx="815.086" cy="366.042" r="4.618"/><circle cx="825.146" cy="389.099" r="4.618"/><circle cx="833.455" cy="412.844" r="4.618"/><circle cx="839.966" cy="437.144" r="4.618"/><circle cx="844.643" cy="461.862" r="4.618"/><circle cx="847.459" cy="486.861" r="4.618"/><circle cx="848.4" cy="512" r="4.618"/><circle cx="847.459" cy="537.139" r="4.618"/><circle cx="844.643" cy="562.138" r="4.618"/><circle cx="839.966" cy="586.856" r="4.618"/><circle cx="833.455" cy="611.156" r="4.618"/><circle cx="825.146" cy="634.901" r="4.618"/><circle cx="815.086" cy="657.958" r="4.618"/><circle cx="803.331" cy="680.2" r="4.618"/><circle cx="789.947" cy="701.501" r="4.618"/><circle cx="775.008" cy="721.742" r="4.618"/><circle cx="758.599" cy="740.81" r="4.618"/><circle cx="740.81" cy="758.599" r="4.618"/><circle cx="721.742" cy="775.008" r="4.618"/><circle cx="701.501" cy="789.947" r="4.618"/><circle cx="680.2" cy="803.331" r="4.618"/><circle cx="657.958" cy="815.086" r="4.618"/><circle cx="634.901" cy="825.146" r="4.618"/><circle cx="611.156" cy="833.455" r="4.618"/><circle cx="586.856" cy="839.966" r="4.618"/><circle cx="562.138" cy="844.643" r="4.618"/><circle cx="537.139" cy="847.459" r="4.618"/><circle cx="512" cy="848.4" r="4.618"/><circle cx="486.861" cy="847.459" r="4.618"/><circle cx="461.862" cy="844.643" r="4.618"/><circle cx="437.144" cy="839.966" r="4.618"/><circle cx="412.844" cy="833.455" r="4.618"/><circle cx="389.099" cy="825.146" r="4.618"/><circle cx="366.042" cy="815.086" r="4.618"/><circle cx="343.8" cy="803.331" r="4.618"/><circle cx="322.499" cy="789.947" r="4.618"/><circle cx="302.258" cy="775.008" r="4.618"/><circle cx="283.19" cy="758.599" r="4.618"/><circle cx="265.401" cy="740.81" r="4.618"/><circle cx="248.992" cy="721.742" r="4.618"/><circle cx="234.053" cy="701.501" r="4.618"/><circle cx="220.669" cy="680.2" r="4.618"/><circle cx="208.914" cy="657.958" r="4.618"/><circle cx="198.854" cy="634.901" r="4.618"/><circle cx="190.545" cy="611.156" r="4.618"/><circle cx="184.034" cy="586.856" r="4.618"/><circle cx="179.357" cy="562.138" r="4.618"/><circle cx="176.541" cy="537.139" r="4.618"/><circle cx="175.6" cy="512" r="4.618"/><circle cx="176.541" cy="486.861" r="4.618"/><circle cx="179.357" cy="461.862" r="4.618"/><circle cx="184.034" cy="437.144" r="4.618"/><circle cx="190.545" cy="412.844" r="4.618"/><circle cx="198.854" cy="389.099" r="4.618"/><circle cx="208.914" cy="366.042" r="4.618"/><circle cx="220.669" cy="343.8" r="4.618"/><circle cx="234.053" cy="322.499" r="4.618"/><circle cx="248.992" cy="302.258" r="4.618"/><circle cx="265.401" cy="283.19" r="4.618"/><circle cx="283.19" cy="265.401" r="4.618"/><circle cx="302.258" cy="248.992" r="4.618"/><circle cx="322.499" cy="234.053" r="4.618"/><circle cx="343.8" cy="220.669" r="4.618"/><circle cx="366.042" cy="208.914" r="4.618"/><circle cx="389.099" cy="198.854" r="4.618"/><circle cx="412.844" cy="190.545" r="4.618"/><circle cx="437.144" cy="184.034" r="4.618"/><circle cx="461.862" cy="179.357" r="4.618"/><circle cx="486.861" cy="176.541" r="4.618"/><circle cx="525.124" cy="161.245" r="4.119"/><circle cx="551.3" cy="163.207" r="4.119"/><circle cx="577.255" cy="167.119" r="4.119"/><circle cx="602.845" cy="172.96" r="4.119"/><circle cx="627.928" cy="180.697" r="4.119"/><circle cx="652.362" cy="190.287" r="4.119"/><circle cx="676.011" cy="201.675" r="4.119"/><circle cx="698.743" cy="214.8" r="4.119"/><circle cx="720.431" cy="229.586" r="4.119"/><circle cx="740.953" cy="245.952" r="4.119"/><circle cx="760.194" cy="263.806" r="4.119"/><circle cx="778.048" cy="283.047" r="4.119"/><circle cx="794.414" cy="303.569" r="4.119"/><circle cx="809.2" cy="325.257" r="4.119"/><circle cx="822.325" cy="347.989" r="4.119"/><circle cx="833.713" cy="371.638" r="4.119"/><circle cx="843.303" cy="396.072" r="4.119"/><circle cx="851.04" cy="421.155" r="4.119"/><circle cx="856.881" cy="446.745" r="4.119"/><circle cx="860.793" cy="472.7" r="4.119"/><circle cx="862.755" cy="498.876" r="4.119"/><circle cx="862.755" cy="525.124" r="4.119"/><circle cx="860.793" cy="551.3" r="4.119"/><circle cx="856.881" cy="577.255" r="4.119"/><circle cx="851.04" cy="602.845" r="4.119"/><circle cx="843.303" cy="627.928" r="4.119"/><circle cx="833.713" cy="652.362" r="4.119"/><circle cx="822.325" cy="676.011" r="4.119"/><circle cx="809.2" cy="698.743" r="4.119"/><circle cx="794.414" cy="720.431" r="4.119"/><circle cx="778.048" cy="740.953" r="4.119"/><circle cx="760.194" cy="760.194" r="4.119"/><circle cx="740.953" cy="778.048" r="4.119"/><circle cx="720.431" cy="794.414" r="4.119"/><circle cx="698.743" cy="809.2" r="4.119"/><circle cx="676.011" cy="822.325" r="4.119"/><circle cx="652.362" cy="833.713" r="4.119"/><circle cx="627.928" cy="843.303" r="4.119"/><circle cx="602.845" cy="851.04" r="4.119"/><circle cx="577.255" cy="856.881" r="4.119"/><circle cx="551.3" cy="860.793" r="4.119"/><circle cx="525.124" cy="862.755" r="4.119"/><circle cx="498.876" cy="862.755" r="4.119"/><circle cx="472.7" cy="860.793" r="4.119"/><circle cx="446.745" cy="856.881" r="4.119"/><circle cx="421.155" cy="851.04" r="4.119"/><circle cx="396.072" cy="843.303" r="4.119"/><circle cx="371.638" cy="833.713" r="4.119"/><circle cx="347.989" cy="822.325" r="4.119"/><circle cx="325.257" cy="809.2" r="4.119"/><circle cx="303.569" cy="794.414" r="4.119"/><circle cx="283.047" cy="778.048" r="4.119"/><circle cx="263.806" cy="760.194" r="4.119"/><circle cx="245.952" cy="740.953" r="4.119"/><circle cx="229.586" cy="720.431" r="4.119"/><circle cx="214.8" cy="698.743" r="4.119"/><circle cx="201.675" cy="676.011" r="4.119"/><circle cx="190.287" cy="652.362" r="4.119"/><circle cx="180.697" cy="627.928" r="4.119"/><circle cx="172.96" cy="602.845" r="4.119"/><circle cx="167.119" cy="577.255" r="4.119"/><circle cx="163.207" cy="551.3" r="4.119"/><circle cx="161.245" cy="525.124" r="4.119"/><circle cx="161.245" cy="498.876" r="4.119"/><circle cx="163.207" cy="472.7" r="4.119"/><circle cx="167.119" cy="446.745" r="4.119"/><circle cx="172.96" cy="421.155" r="4.119"/><circle cx="180.697" cy="396.072" r="4.119"/><circle cx="190.287" cy="371.638" r="4.119"/><circle cx="201.675" cy="347.989" r="4.119"/><circle cx="214.8" cy="325.257" r="4.119"/><circle cx="229.586" cy="303.569" r="4.119"/><circle cx="245.952" cy="283.047" r="4.119"/><circle cx="263.806" cy="263.806" r="4.119"/><circle cx="283.047" cy="245.952" r="4.119"/><circle cx="303.569" cy="229.586" r="4.119"/><circle cx="325.257" cy="214.8" r="4.119"/><circle cx="347.989" cy="201.675" r="4.119"/><circle cx="371.638" cy="190.287" r="4.119"/><circle cx="396.072" cy="180.697" r="4.119"/><circle cx="421.155" cy="172.96" r="4.119"/><circle cx="446.745" cy="167.119" r="4.119"/><circle cx="472.7" cy="163.207" r="4.119"/><circle cx="498.876" cy="161.245" r="4.119"/><circle cx="512" cy="146.4" r="3.636"/><circle cx="539.321" cy="147.422" r="3.636"/><circle cx="566.49" cy="150.483" r="3.636"/><circle cx="593.354" cy="155.566" r="3.636"/><circle cx="619.762" cy="162.643" r="3.636"/><circle cx="645.569" cy="171.673" r="3.636"/><circle cx="670.628" cy="182.606" r="3.636"/><circle cx="694.8" cy="195.381" r="3.636"/><circle cx="717.95" cy="209.927" r="3.636"/><circle cx="739.948" cy="226.162" r="3.636"/><circle cx="760.671" cy="243.996" r="3.636"/><circle cx="780.004" cy="263.329" r="3.636"/><circle cx="797.838" cy="284.052" r="3.636"/><circle cx="814.073" cy="306.05" r="3.636"/><circle cx="828.619" cy="329.2" r="3.636"/><circle cx="841.394" cy="353.372" r="3.636"/><circle cx="852.327" cy="378.431" r="3.636"/><circle cx="861.357" cy="404.238" r="3.636"/><circle cx="868.434" cy="430.646" r="3.636"/><circle cx="873.517" cy="457.51" r="3.636"/><circle cx="876.578" cy="484.679" r="3.636"/><circle cx="877.6" cy="512" r="3.636"/><circle cx="876.578" cy="539.321" r="3.636"/><circle cx="873.517" cy="566.49" r="3.636"/><circle cx="868.434" cy="593.354" r="3.636"/><circle cx="861.357" cy="619.762" r="3.636"/><circle cx="852.327" cy="645.569" r="3.636"/><circle cx="841.394" cy="670.628" r="3.636"/><circle cx="828.619" cy="694.8" r="3.636"/><circle cx="814.073" cy="717.95" r="3.636"/><circle cx="797.838" cy="739.948" r="3.636"/><circle cx="780.004" cy="760.671" r="3.636"/><circle cx="760.671" cy="780.004" r="3.636"/><circle cx="739.948" cy="797.838" r="3.636"/><circle cx="717.95" cy="814.073" r="3.636"/><circle cx="694.8" cy="828.619" r="3.636"/><circle cx="670.628" cy="841.394" r="3.636"/><circle cx="645.569" cy="852.327" r="3.636"/><circle cx="619.762" cy="861.357" r="3.636"/><circle cx="593.354" cy="868.434" r="3.636"/><circle cx="566.49" cy="873.517" r="3.636"/><circle cx="539.321" cy="876.578" r="3.636"/><circle cx="512" cy="877.6" r="3.636"/><circle cx="484.679" cy="876.578" r="3.636"/><circle cx="457.51" cy="873.517" r="3.636"/><circle cx="430.646" cy="868.434" r="3.636"/><circle cx="404.238" cy="861.357" r="3.636"/><circle cx="378.431" cy="852.327" r="3.636"/><circle cx="353.372" cy="841.394" r="3.636"/><circle cx="329.2" cy="828.619" r="3.636"/><circle cx="306.05" cy="814.073" r="3.636"/><circle cx="284.052" cy="797.838" r="3.636"/><circle cx="263.329" cy="780.004" r="3.636"/><circle cx="243.996" cy="760.671" r="3.636"/><circle cx="226.162" cy="739.948" r="3.636"/><circle cx="209.927" cy="717.95" r="3.636"/><circle cx="195.381" cy="694.8" r="3.636"/><circle cx="182.606" cy="670.628" r="3.636"/><circle cx="171.673" cy="645.569" r="3.636"/><circle cx="162.643" cy="619.762" r="3.636"/><circle cx="155.566" cy="593.354" r="3.636"/><circle cx="150.483" cy="566.49" r="3.636"/><circle cx="147.422" cy="539.321" r="3.636"/><circle cx="146.4" cy="512" r="3.636"/><circle cx="147.422" cy="484.679" r="3.636"/><circle cx="150.483" cy="457.51" r="3.636"/><circle cx="155.566" cy="430.646" r="3.636"/><circle cx="162.643" cy="404.238" r="3.636"/><circle cx="171.673" cy="378.431" r="3.636"/><circle cx="182.606" cy="353.372" r="3.636"/><circle cx="195.381" cy="329.2" r="3.636"/><circle cx="209.927" cy="306.05" r="3.636"/><circle cx="226.162" cy="284.052" r="3.636"/><circle cx="243.996" cy="263.329" r="3.636"/><circle cx="263.329" cy="243.996" r="3.636"/><circle cx="284.052" cy="226.162" r="3.636"/><circle cx="306.05" cy="209.927" r="3.636"/><circle cx="329.2" cy="195.381" r="3.636"/><circle cx="353.372" cy="182.606" r="3.636"/><circle cx="378.431" cy="171.673" r="3.636"/><circle cx="404.238" cy="162.643" r="3.636"/><circle cx="430.646" cy="155.566" r="3.636"/><circle cx="457.51" cy="150.483" r="3.636"/><circle cx="484.679" cy="147.422" r="3.636"/><circle cx="526.216" cy="132.066" r="3.171" opacity="0.955"/><circle cx="554.569" cy="134.191" r="3.171" opacity="0.955"/><circle cx="582.684" cy="138.428" r="3.171" opacity="0.955"/><circle cx="610.403" cy="144.755" r="3.171" opacity="0.955"/><circle cx="637.572" cy="153.136" r="3.171" opacity="0.955"/><circle cx="664.039" cy="163.523" r="3.171" opacity="0.955"/><circle cx="689.656" cy="175.859" r="3.171" opacity="0.955"/><circle cx="714.279" cy="190.075" r="3.171" opacity="0.955"/><circle cx="737.77" cy="206.092" r="3.171" opacity="0.955"/><circle cx="760" cy="223.819" r="3.171" opacity="0.955"/><circle cx="780.842" cy="243.158" r="3.171" opacity="0.955"/><circle cx="800.181" cy="264" r="3.171" opacity="0.955"/><circle cx="817.908" cy="286.23" r="3.171" opacity="0.955"/><circle cx="833.925" cy="309.721" r="3.171" opacity="0.955"/><circle cx="848.141" cy="334.344" r="3.171" opacity="0.955"/><circle cx="860.477" cy="359.961" r="3.171" opacity="0.955"/><circle cx="870.864" cy="386.428" r="3.171" opacity="0.955"/><circle cx="879.245" cy="413.597" r="3.171" opacity="0.955"/><circle cx="885.572" cy="441.316" r="3.171" opacity="0.955"/><circle cx="889.809" cy="469.431" r="3.171" opacity="0.955"/><circle cx="891.934" cy="497.784" r="3.171" opacity="0.955"/><circle cx="891.934" cy="526.216" r="3.171" opacity="0.955"/><circle cx="889.809" cy="554.569" r="3.171" opacity="0.955"/><circle cx="885.572" cy="582.684" r="3.171" opacity="0.955"/><circle cx="879.245" cy="610.403" r="3.171" opacity="0.955"/><circle cx="870.864" cy="637.572" r="3.171" opacity="0.955"/><circle cx="860.477" cy="664.039" r="3.171" opacity="0.955"/><circle cx="848.141" cy="689.656" r="3.171" opacity="0.955"/><circle cx="833.925" cy="714.279" r="3.171" opacity="0.955"/><circle cx="817.908" cy="737.77" r="3.171" opacity="0.955"/><circle cx="800.181" cy="760" r="3.171" opacity="0.955"/><circle cx="780.842" cy="780.842" r="3.171" opacity="0.955"/><circle cx="760" cy="800.181" r="3.171" opacity="0.955"/><circle cx="737.77" cy="817.908" r="3.171" opacity="0.955"/><circle cx="714.279" cy="833.925" r="3.171" opacity="0.955"/><circle cx="689.656" cy="848.141" r="3.171" opacity="0.955"/><circle cx="664.039" cy="860.477" r="3.171" opacity="0.955"/><circle cx="637.572" cy="870.864" r="3.171" opacity="0.955"/><circle cx="610.403" cy="879.245" r="3.171" opacity="0.955"/><circle cx="582.684" cy="885.572" r="3.171" opacity="0.955"/><circle cx="554.569" cy="889.809" r="3.171" opacity="0.955"/><circle cx="526.216" cy="891.934" r="3.171" opacity="0.955"/><circle cx="497.784" cy="891.934" r="3.171" opacity="0.955"/><circle cx="469.431" cy="889.809" r="3.171" opacity="0.955"/><circle cx="441.316" cy="885.572" r="3.171" opacity="0.955"/><circle cx="413.597" cy="879.245" r="3.171" opacity="0.955"/><circle cx="386.428" cy="870.864" r="3.171" opacity="0.955"/><circle cx="359.961" cy="860.477" r="3.171" opacity="0.955"/><circle cx="334.344" cy="848.141" r="3.171" opacity="0.955"/><circle cx="309.721" cy="833.925" r="3.171" opacity="0.955"/><circle cx="286.23" cy="817.908" r="3.171" opacity="0.955"/><circle cx="264" cy="800.181" r="3.171" opacity="0.955"/><circle cx="243.158" cy="780.842" r="3.171" opacity="0.955"/><circle cx="223.819" cy="760" r="3.171" opacity="0.955"/><circle cx="206.092" cy="737.77" r="3.171" opacity="0.955"/><circle cx="190.075" cy="714.279" r="3.171" opacity="0.955"/><circle cx="175.859" cy="689.656" r="3.171" opacity="0.955"/><circle cx="163.523" cy="664.039" r="3.171" opacity="0.955"/><circle cx="153.136" cy="637.572" r="3.171" opacity="0.955"/><circle cx="144.755" cy="610.403" r="3.171" opacity="0.955"/><circle cx="138.428" cy="582.684" r="3.171" opacity="0.955"/><circle cx="134.191" cy="554.569" r="3.171" opacity="0.955"/><circle cx="132.066" cy="526.216" r="3.171" opacity="0.955"/><circle cx="132.066" cy="497.784" r="3.171" opacity="0.955"/><circle cx="134.191" cy="469.431" r="3.171" opacity="0.955"/><circle cx="138.428" cy="441.316" r="3.171" opacity="0.955"/><circle cx="144.755" cy="413.597" r="3.171" opacity="0.955"/><circle cx="153.136" cy="386.428" r="3.171" opacity="0.955"/><circle cx="163.523" cy="359.961" r="3.171" opacity="0.955"/><circle cx="175.859" cy="334.344" r="3.171" opacity="0.955"/><circle cx="190.075" cy="309.721" r="3.171" opacity="0.955"/><circle cx="206.092" cy="286.23" r="3.171" opacity="0.955"/><circle cx="223.819" cy="264" r="3.171" opacity="0.955"/><circle cx="243.158" cy="243.158" r="3.171" opacity="0.955"/><circle cx="264" cy="223.819" r="3.171" opacity="0.955"/><circle cx="286.23" cy="206.092" r="3.171" opacity="0.955"/><circle cx="309.721" cy="190.075" r="3.171" opacity="0.955"/><circle cx="334.344" cy="175.859" r="3.171" opacity="0.955"/><circle cx="359.961" cy="163.523" r="3.171" opacity="0.955"/><circle cx="386.428" cy="153.136" r="3.171" opacity="0.955"/><circle cx="413.597" cy="144.755" r="3.171" opacity="0.955"/><circle cx="441.316" cy="138.428" r="3.171" opacity="0.955"/><circle cx="469.431" cy="134.191" r="3.171" opacity="0.955"/><circle cx="497.784" cy="132.066" r="3.171" opacity="0.955"/><circle cx="512" cy="117.2" r="2.725" opacity="0.866"/><circle cx="541.503" cy="118.304" r="2.725" opacity="0.866"/><circle cx="570.842" cy="121.61" r="2.725" opacity="0.866"/><circle cx="599.851" cy="127.098" r="2.725" opacity="0.866"/><circle cx="628.369" cy="134.74" r="2.725" opacity="0.866"/><circle cx="656.237" cy="144.491" r="2.725" opacity="0.866"/><circle cx="683.297" cy="156.297" r="2.725" opacity="0.866"/><circle cx="709.4" cy="170.093" r="2.725" opacity="0.866"/><circle cx="734.399" cy="185.801" r="2.725" opacity="0.866"/><circle cx="758.154" cy="203.333" r="2.725" opacity="0.866"/><circle cx="780.532" cy="222.591" r="2.725" opacity="0.866"/><circle cx="801.409" cy="243.468" r="2.725" opacity="0.866"/><circle cx="820.667" cy="265.846" r="2.725" opacity="0.866"/><circle cx="838.199" cy="289.601" r="2.725" opacity="0.866"/><circle cx="853.907" cy="314.6" r="2.725" opacity="0.866"/><circle cx="867.703" cy="340.703" r="2.725" opacity="0.866"/><circle cx="879.509" cy="367.763" r="2.725" opacity="0.866"/><circle cx="889.26" cy="395.631" r="2.725" opacity="0.866"/><circle cx="896.902" cy="424.149" r="2.725" opacity="0.866"/><circle cx="902.39" cy="453.158" r="2.725" opacity="0.866"/><circle cx="905.696" cy="482.497" r="2.725" opacity="0.866"/><circle cx="906.8" cy="512" r="2.725" opacity="0.866"/><circle cx="905.696" cy="541.503" r="2.725" opacity="0.866"/><circle cx="902.39" cy="570.842" r="2.725" opacity="0.866"/><circle cx="896.902" cy="599.851" r="2.725" opacity="0.866"/><circle cx="889.26" cy="628.369" r="2.725" opacity="0.866"/><circle cx="879.509" cy="656.237" r="2.725" opacity="0.866"/><circle cx="867.703" cy="683.297" r="2.725" opacity="0.866"/><circle cx="853.907" cy="709.4" r="2.725" opacity="0.866"/><circle cx="838.199" cy="734.399" r="2.725" opacity="0.866"/><circle cx="820.667" cy="758.154" r="2.725" opacity="0.866"/><circle cx="801.409" cy="780.532" r="2.725" opacity="0.866"/><circle cx="780.532" cy="801.409" r="2.725" opacity="0.866"/><circle cx="758.154" cy="820.667" r="2.725" opacity="0.866"/><circle cx="734.399" cy="838.199" r="2.725" opacity="0.866"/><circle cx="709.4" cy="853.907" r="2.725" opacity="0.866"/><circle cx="683.297" cy="867.703" r="2.725" opacity="0.866"/><circle cx="656.237" cy="879.509" r="2.725" opacity="0.866"/><circle cx="628.369" cy="889.26" r="2.725" opacity="0.866"/><circle cx="599.851" cy="896.902" r="2.725" opacity="0.866"/><circle cx="570.842" cy="902.39" r="2.725" opacity="0.866"/><circle cx="541.503" cy="905.696" r="2.725" opacity="0.866"/><circle cx="512" cy="906.8" r="2.725" opacity="0.866"/><circle cx="482.497" cy="905.696" r="2.725" opacity="0.866"/><circle cx="453.158" cy="902.39" r="2.725" opacity="0.866"/><circle cx="424.149" cy="896.902" r="2.725" opacity="0.866"/><circle cx="395.631" cy="889.26" r="2.725" opacity="0.866"/><circle cx="367.763" cy="879.509" r="2.725" opacity="0.866"/><circle cx="340.703" cy="867.703" r="2.725" opacity="0.866"/><circle cx="314.6" cy="853.907" r="2.725" opacity="0.866"/><circle cx="289.601" cy="838.199" r="2.725" opacity="0.866"/><circle cx="265.846" cy="820.667" r="2.725" opacity="0.866"/><circle cx="243.468" cy="801.409" r="2.725" opacity="0.866"/><circle cx="222.591" cy="780.532" r="2.725" opacity="0.866"/><circle cx="203.333" cy="758.154" r="2.725" opacity="0.866"/><circle cx="185.801" cy="734.399" r="2.725" opacity="0.866"/><circle cx="170.093" cy="709.4" r="2.725" opacity="0.866"/><circle cx="156.297" cy="683.297" r="2.725" opacity="0.866"/><circle cx="144.491" cy="656.237" r="2.725" opacity="0.866"/><circle cx="134.74" cy="628.369" r="2.725" opacity="0.866"/><circle cx="127.098" cy="599.851" r="2.725" opacity="0.866"/><circle cx="121.61" cy="570.842" r="2.725" opacity="0.866"/><circle cx="118.304" cy="541.503" r="2.725" opacity="0.866"/><circle cx="117.2" cy="512" r="2.725" opacity="0.866"/><circle cx="118.304" cy="482.497" r="2.725" opacity="0.866"/><circle cx="121.61" cy="453.158" r="2.725" opacity="0.866"/><circle cx="127.098" cy="424.149" r="2.725" opacity="0.866"/><circle cx="134.74" cy="395.631" r="2.725" opacity="0.866"/><circle cx="144.491" cy="367.763" r="2.725" opacity="0.866"/><circle cx="156.297" cy="340.703" r="2.725" opacity="0.866"/><circle cx="170.093" cy="314.6" r="2.725" opacity="0.866"/><circle cx="185.801" cy="289.601" r="2.725" opacity="0.866"/><circle cx="203.333" cy="265.846" r="2.725" opacity="0.866"/><circle cx="222.591" cy="243.468" r="2.725" opacity="0.866"/><circle cx="243.468" cy="222.591" r="2.725" opacity="0.866"/><circle cx="265.846" cy="203.333" r="2.725" opacity="0.866"/><circle cx="289.601" cy="185.801" r="2.725" opacity="0.866"/><circle cx="314.6" cy="170.093" r="2.725" opacity="0.866"/><circle cx="340.703" cy="156.297" r="2.725" opacity="0.866"/><circle cx="367.763" cy="144.491" r="2.725" opacity="0.866"/><circle cx="395.631" cy="134.74" r="2.725" opacity="0.866"/><circle cx="424.149" cy="127.098" r="2.725" opacity="0.866"/><circle cx="453.158" cy="121.61" r="2.725" opacity="0.866"/><circle cx="482.497" cy="118.304" r="2.725" opacity="0.866"/><circle cx="527.308" cy="102.886" r="2.302" opacity="0.777"/><circle cx="557.838" cy="105.174" r="2.302" opacity="0.777"/><circle cx="588.112" cy="109.737" r="2.302" opacity="0.777"/><circle cx="617.961" cy="116.55" r="2.302" opacity="0.777"/><circle cx="647.216" cy="125.574" r="2.302" opacity="0.777"/><circle cx="675.716" cy="136.759" r="2.302" opacity="0.777"/><circle cx="703.3" cy="150.043" r="2.302" opacity="0.777"/><circle cx="729.814" cy="165.351" r="2.302" opacity="0.777"/><circle cx="755.11" cy="182.598" r="2.302" opacity="0.777"/><circle cx="779.046" cy="201.686" r="2.302" opacity="0.777"/><circle cx="801.49" cy="222.51" r="2.302" opacity="0.777"/><circle cx="822.314" cy="244.954" r="2.302" opacity="0.777"/><circle cx="841.402" cy="268.89" r="2.302" opacity="0.777"/><circle cx="858.649" cy="294.186" r="2.302" opacity="0.777"/><circle cx="873.957" cy="320.7" r="2.302" opacity="0.777"/><circle cx="887.241" cy="348.284" r="2.302" opacity="0.777"/><circle cx="898.426" cy="376.784" r="2.302" opacity="0.777"/><circle cx="907.45" cy="406.039" r="2.302" opacity="0.777"/><circle cx="914.263" cy="435.888" r="2.302" opacity="0.777"/><circle cx="918.826" cy="466.162" r="2.302" opacity="0.777"/><circle cx="921.114" cy="496.692" r="2.302" opacity="0.777"/><circle cx="921.114" cy="527.308" r="2.302" opacity="0.777"/><circle cx="918.826" cy="557.838" r="2.302" opacity="0.777"/><circle cx="914.263" cy="588.112" r="2.302" opacity="0.777"/><circle cx="907.45" cy="617.961" r="2.302" opacity="0.777"/><circle cx="898.426" cy="647.216" r="2.302" opacity="0.777"/><circle cx="887.241" cy="675.716" r="2.302" opacity="0.777"/><circle cx="873.957" cy="703.3" r="2.302" opacity="0.777"/><circle cx="858.649" cy="729.814" r="2.302" opacity="0.777"/><circle cx="841.402" cy="755.11" r="2.302" opacity="0.777"/><circle cx="822.314" cy="779.046" r="2.302" opacity="0.777"/><circle cx="801.49" cy="801.49" r="2.302" opacity="0.777"/><circle cx="779.046" cy="822.314" r="2.302" opacity="0.777"/><circle cx="755.11" cy="841.402" r="2.302" opacity="0.777"/><circle cx="729.814" cy="858.649" r="2.302" opacity="0.777"/><circle cx="703.3" cy="873.957" r="2.302" opacity="0.777"/><circle cx="675.716" cy="887.241" r="2.302" opacity="0.777"/><circle cx="647.216" cy="898.426" r="2.302" opacity="0.777"/><circle cx="617.961" cy="907.45" r="2.302" opacity="0.777"/><circle cx="588.112" cy="914.263" r="2.302" opacity="0.777"/><circle cx="557.838" cy="918.826" r="2.302" opacity="0.777"/><circle cx="527.308" cy="921.114" r="2.302" opacity="0.777"/><circle cx="496.692" cy="921.114" r="2.302" opacity="0.777"/><circle cx="466.162" cy="918.826" r="2.302" opacity="0.777"/><circle cx="435.888" cy="914.263" r="2.302" opacity="0.777"/><circle cx="406.039" cy="907.45" r="2.302" opacity="0.777"/><circle cx="376.784" cy="898.426" r="2.302" opacity="0.777"/><circle cx="348.284" cy="887.241" r="2.302" opacity="0.777"/><circle cx="320.7" cy="873.957" r="2.302" opacity="0.777"/><circle cx="294.186" cy="858.649" r="2.302" opacity="0.777"/><circle cx="268.89" cy="841.402" r="2.302" opacity="0.777"/><circle cx="244.954" cy="822.314" r="2.302" opacity="0.777"/><circle cx="222.51" cy="801.49" r="2.302" opacity="0.777"/><circle cx="201.686" cy="779.046" r="2.302" opacity="0.777"/><circle cx="182.598" cy="755.11" r="2.302" opacity="0.777"/><circle cx="165.351" cy="729.814" r="2.302" opacity="0.777"/><circle cx="150.043" cy="703.3" r="2.302" opacity="0.777"/><circle cx="136.759" cy="675.716" r="2.302" opacity="0.777"/><circle cx="125.574" cy="647.216" r="2.302" opacity="0.777"/><circle cx="116.55" cy="617.961" r="2.302" opacity="0.777"/><circle cx="109.737" cy="588.112" r="2.302" opacity="0.777"/><circle cx="105.174" cy="557.838" r="2.302" opacity="0.777"/><circle cx="102.886" cy="527.308" r="2.302" opacity="0.777"/><circle cx="102.886" cy="496.692" r="2.302" opacity="0.777"/><circle cx="105.174" cy="466.162" r="2.302" opacity="0.777"/><circle cx="109.737" cy="435.888" r="2.302" opacity="0.777"/><circle cx="116.55" cy="406.039" r="2.302" opacity="0.777"/><circle cx="125.574" cy="376.784" r="2.302" opacity="0.777"/><circle cx="136.759" cy="348.284" r="2.302" opacity="0.777"/><circle cx="150.043" cy="320.7" r="2.302" opacity="0.777"/><circle cx="165.351" cy="294.186" r="2.302" opacity="0.777"/><circle cx="182.598" cy="268.89" r="2.302" opacity="0.777"/><circle cx="201.686" cy="244.954" r="2.302" opacity="0.777"/><circle cx="222.51" cy="222.51" r="2.302" opacity="0.777"/><circle cx="244.954" cy="201.686" r="2.302" opacity="0.777"/><circle cx="268.89" cy="182.598" r="2.302" opacity="0.777"/><circle cx="294.186" cy="165.351" r="2.302" opacity="0.777"/><circle cx="320.7" cy="150.043" r="2.302" opacity="0.777"/><circle cx="348.284" cy="136.759" r="2.302" opacity="0.777"/><circle cx="376.784" cy="125.574" r="2.302" opacity="0.777"/><circle cx="406.039" cy="116.55" r="2.302" opacity="0.777"/><circle cx="435.888" cy="109.737" r="2.302" opacity="0.777"/><circle cx="466.162" cy="105.174" r="2.302" opacity="0.777"/><circle cx="496.692" cy="102.886" r="2.302" opacity="0.777"/><circle cx="512" cy="88" r="1.906" opacity="0.688"/><circle cx="543.686" cy="89.186" r="1.906" opacity="0.688"/><circle cx="575.194" cy="92.736" r="1.906" opacity="0.688"/><circle cx="606.349" cy="98.631" r="1.906" opacity="0.688"/><circle cx="636.976" cy="106.837" r="1.906" opacity="0.688"/><circle cx="666.905" cy="117.31" r="1.906" opacity="0.688"/><circle cx="695.967" cy="129.989" r="1.906" opacity="0.688"/><circle cx="724" cy="144.805" r="1.906" opacity="0.688"/><circle cx="750.848" cy="161.675" r="1.906" opacity="0.688"/><circle cx="776.36" cy="180.503" r="1.906" opacity="0.688"/><circle cx="800.393" cy="201.186" r="1.906" opacity="0.688"/><circle cx="822.814" cy="223.607" r="1.906" opacity="0.688"/><circle cx="843.497" cy="247.64" r="1.906" opacity="0.688"/><circle cx="862.325" cy="273.152" r="1.906" opacity="0.688"/><circle cx="879.195" cy="300" r="1.906" opacity="0.688"/><circle cx="894.011" cy="328.033" r="1.906" opacity="0.688"/><circle cx="906.69" cy="357.095" r="1.906" opacity="0.688"/><circle cx="917.163" cy="387.024" r="1.906" opacity="0.688"/><circle cx="925.369" cy="417.651" r="1.906" opacity="0.688"/><circle cx="931.264" cy="448.806" r="1.906" opacity="0.688"/><circle cx="934.814" cy="480.314" r="1.906" opacity="0.688"/><circle cx="936" cy="512" r="1.906" opacity="0.688"/><circle cx="934.814" cy="543.686" r="1.906" opacity="0.688"/><circle cx="931.264" cy="575.194" r="1.906" opacity="0.688"/><circle cx="925.369" cy="606.349" r="1.906" opacity="0.688"/><circle cx="917.163" cy="636.976" r="1.906" opacity="0.688"/><circle cx="906.69" cy="666.905" r="1.906" opacity="0.688"/><circle cx="894.011" cy="695.967" r="1.906" opacity="0.688"/><circle cx="879.195" cy="724" r="1.906" opacity="0.688"/><circle cx="862.325" cy="750.848" r="1.906" opacity="0.688"/><circle cx="843.497" cy="776.36" r="1.906" opacity="0.688"/><circle cx="822.814" cy="800.393" r="1.906" opacity="0.688"/><circle cx="800.393" cy="822.814" r="1.906" opacity="0.688"/><circle cx="776.36" cy="843.497" r="1.906" opacity="0.688"/><circle cx="750.848" cy="862.325" r="1.906" opacity="0.688"/><circle cx="724" cy="879.195" r="1.906" opacity="0.688"/><circle cx="695.967" cy="894.011" r="1.906" opacity="0.688"/><circle cx="666.905" cy="906.69" r="1.906" opacity="0.688"/><circle cx="636.976" cy="917.163" r="1.906" opacity="0.688"/><circle cx="606.349" cy="925.369" r="1.906" opacity="0.688"/><circle cx="575.194" cy="931.264" r="1.906" opacity="0.688"/><circle cx="543.686" cy="934.814" r="1.906" opacity="0.688"/><circle cx="512" cy="936" r="1.906" opacity="0.688"/><circle cx="480.314" cy="934.814" r="1.906" opacity="0.688"/><circle cx="448.806" cy="931.264" r="1.906" opacity="0.688"/><circle cx="417.651" cy="925.369" r="1.906" opacity="0.688"/><circle cx="387.024" cy="917.163" r="1.906" opacity="0.688"/><circle cx="357.095" cy="906.69" r="1.906" opacity="0.688"/><circle cx="328.033" cy="894.011" r="1.906" opacity="0.688"/><circle cx="300" cy="879.195" r="1.906" opacity="0.688"/><circle cx="273.152" cy="862.325" r="1.906" opacity="0.688"/><circle cx="247.64" cy="843.497" r="1.906" opacity="0.688"/><circle cx="223.607" cy="822.814" r="1.906" opacity="0.688"/><circle cx="201.186" cy="800.393" r="1.906" opacity="0.688"/><circle cx="180.503" cy="776.36" r="1.906" opacity="0.688"/><circle cx="161.675" cy="750.848" r="1.906" opacity="0.688"/><circle cx="144.805" cy="724" r="1.906" opacity="0.688"/><circle cx="129.989" cy="695.967" r="1.906" opacity="0.688"/><circle cx="117.31" cy="666.905" r="1.906" opacity="0.688"/><circle cx="106.837" cy="636.976" r="1.906" opacity="0.688"/><circle cx="98.631" cy="606.349" r="1.906" opacity="0.688"/><circle cx="92.736" cy="575.194" r="1.906" opacity="0.688"/><circle cx="89.186" cy="543.686" r="1.906" opacity="0.688"/><circle cx="88" cy="512" r="1.906" opacity="0.688"/><circle cx="89.186" cy="480.314" r="1.906" opacity="0.688"/><circle cx="92.736" cy="448.806" r="1.906" opacity="0.688"/><circle cx="98.631" cy="417.651" r="1.906" opacity="0.688"/><circle cx="106.837" cy="387.024" r="1.906" opacity="0.688"/><circle cx="117.31" cy="357.095" r="1.906" opacity="0.688"/><circle cx="129.989" cy="328.033" r="1.906" opacity="0.688"/><circle cx="144.805" cy="300" r="1.906" opacity="0.688"/><circle cx="161.675" cy="273.152" r="1.906" opacity="0.688"/><circle cx="180.503" cy="247.64" r="1.906" opacity="0.688"/><circle cx="201.186" cy="223.607" r="1.906" opacity="0.688"/><circle cx="223.607" cy="201.186" r="1.906" opacity="0.688"/><circle cx="247.64" cy="180.503" r="1.906" opacity="0.688"/><circle cx="273.152" cy="161.675" r="1.906" opacity="0.688"/><circle cx="300" cy="144.805" r="1.906" opacity="0.688"/><circle cx="328.033" cy="129.989" r="1.906" opacity="0.688"/><circle cx="357.095" cy="117.31" r="1.906" opacity="0.688"/><circle cx="387.024" cy="106.837" r="1.906" opacity="0.688"/><circle cx="417.651" cy="98.631" r="1.906" opacity="0.688"/><circle cx="448.806" cy="92.736" r="1.906" opacity="0.688"/><circle cx="480.314" cy="89.186" r="1.906" opacity="0.688"/><circle cx="528.4" cy="73.707" r="1.544" opacity="0.598"/><circle cx="561.108" cy="76.158" r="1.544" opacity="0.598"/><circle cx="593.541" cy="81.046" r="1.544" opacity="0.598"/><circle cx="625.518" cy="88.345" r="1.544" opacity="0.598"/><circle cx="656.86" cy="98.013" r="1.544" opacity="0.598"/><circle cx="687.393" cy="109.996" r="1.544" opacity="0.598"/><circle cx="716.944" cy="124.227" r="1.544" opacity="0.598"/><circle cx="745.349" cy="140.627" r="1.544" opacity="0.598"/><circle cx="772.45" cy="159.103" r="1.544" opacity="0.598"/><circle cx="798.093" cy="179.554" r="1.544" opacity="0.598"/><circle cx="822.137" cy="201.863" r="1.544" opacity="0.598"/><circle cx="844.446" cy="225.907" r="1.544" opacity="0.598"/><circle cx="864.897" cy="251.55" r="1.544" opacity="0.598"/><circle cx="883.373" cy="278.651" r="1.544" opacity="0.598"/><circle cx="899.773" cy="307.056" r="1.544" opacity="0.598"/><circle cx="914.004" cy="336.607" r="1.544" opacity="0.598"/><circle cx="925.987" cy="367.14" r="1.544" opacity="0.598"/><circle cx="935.655" cy="398.482" r="1.544" opacity="0.598"/><circle cx="942.954" cy="430.459" r="1.544" opacity="0.598"/><circle cx="947.842" cy="462.892" r="1.544" opacity="0.598"/><circle cx="950.293" cy="495.6" r="1.544" opacity="0.598"/><circle cx="950.293" cy="528.4" r="1.544" opacity="0.598"/><circle cx="947.842" cy="561.108" r="1.544" opacity="0.598"/><circle cx="942.954" cy="593.541" r="1.544" opacity="0.598"/><circle cx="935.655" cy="625.518" r="1.544" opacity="0.598"/><circle cx="925.987" cy="656.86" r="1.544" opacity="0.598"/><circle cx="914.004" cy="687.393" r="1.544" opacity="0.598"/><circle cx="899.773" cy="716.944" r="1.544" opacity="0.598"/><circle cx="883.373" cy="745.349" r="1.544" opacity="0.598"/><circle cx="864.897" cy="772.45" r="1.544" opacity="0.598"/><circle cx="844.446" cy="798.093" r="1.544" opacity="0.598"/><circle cx="822.137" cy="822.137" r="1.544" opacity="0.598"/><circle cx="798.093" cy="844.446" r="1.544" opacity="0.598"/><circle cx="772.45" cy="864.897" r="1.544" opacity="0.598"/><circle cx="745.349" cy="883.373" r="1.544" opacity="0.598"/><circle cx="716.944" cy="899.773" r="1.544" opacity="0.598"/><circle cx="687.393" cy="914.004" r="1.544" opacity="0.598"/><circle cx="656.86" cy="925.987" r="1.544" opacity="0.598"/><circle cx="625.518" cy="935.655" r="1.544" opacity="0.598"/><circle cx="593.541" cy="942.954" r="1.544" opacity="0.598"/><circle cx="561.108" cy="947.842" r="1.544" opacity="0.598"/><circle cx="528.4" cy="950.293" r="1.544" opacity="0.598"/><circle cx="495.6" cy="950.293" r="1.544" opacity="0.598"/><circle cx="462.892" cy="947.842" r="1.544" opacity="0.598"/><circle cx="430.459" cy="942.954" r="1.544" opacity="0.598"/><circle cx="398.482" cy="935.655" r="1.544" opacity="0.598"/><circle cx="367.14" cy="925.987" r="1.544" opacity="0.598"/><circle cx="336.607" cy="914.004" r="1.544" opacity="0.598"/><circle cx="307.056" cy="899.773" r="1.544" opacity="0.598"/><circle cx="278.651" cy="883.373" r="1.544" opacity="0.598"/><circle cx="251.55" cy="864.897" r="1.544" opacity="0.598"/><circle cx="225.907" cy="844.446" r="1.544" opacity="0.598"/><circle cx="201.863" cy="822.137" r="1.544" opacity="0.598"/><circle cx="179.554" cy="798.093" r="1.544" opacity="0.598"/><circle cx="159.103" cy="772.45" r="1.544" opacity="0.598"/><circle cx="140.627" cy="745.349" r="1.544" opacity="0.598"/><circle cx="124.227" cy="716.944" r="1.544" opacity="0.598"/><circle cx="109.996" cy="687.393" r="1.544" opacity="0.598"/><circle cx="98.013" cy="656.86" r="1.544" opacity="0.598"/><circle cx="88.345" cy="625.518" r="1.544" opacity="0.598"/><circle cx="81.046" cy="593.541" r="1.544" opacity="0.598"/><circle cx="76.158" cy="561.108" r="1.544" opacity="0.598"/><circle cx="73.707" cy="528.4" r="1.544" opacity="0.598"/><circle cx="73.707" cy="495.6" r="1.544" opacity="0.598"/><circle cx="76.158" cy="462.892" r="1.544" opacity="0.598"/><circle cx="81.046" cy="430.459" r="1.544" opacity="0.598"/><circle cx="88.345" cy="398.482" r="1.544" opacity="0.598"/><circle cx="98.013" cy="367.14" r="1.544" opacity="0.598"/><circle cx="109.996" cy="336.607" r="1.544" opacity="0.598"/><circle cx="124.227" cy="307.056" r="1.544" opacity="0.598"/><circle cx="140.627" cy="278.651" r="1.544" opacity="0.598"/><circle cx="159.103" cy="251.55" r="1.544" opacity="0.598"/><circle cx="179.554" cy="225.907" r="1.544" opacity="0.598"/><circle cx="201.863" cy="201.863" r="1.544" opacity="0.598"/><circle cx="225.907" cy="179.554" r="1.544" opacity="0.598"/><circle cx="251.55" cy="159.103" r="1.544" opacity="0.598"/><circle cx="278.651" cy="140.627" r="1.544" opacity="0.598"/><circle cx="307.056" cy="124.227" r="1.544" opacity="0.598"/><circle cx="336.607" cy="109.996" r="1.544" opacity="0.598"/><circle cx="367.14" cy="98.013" r="1.544" opacity="0.598"/><circle cx="398.482" cy="88.345" r="1.544" opacity="0.598"/><circle cx="430.459" cy="81.046" r="1.544" opacity="0.598"/><circle cx="462.892" cy="76.158" r="1.544" opacity="0.598"/><circle cx="495.6" cy="73.707" r="1.544" opacity="0.598"/><circle cx="512" cy="58.8" r="1.227" opacity="0.509"/><circle cx="545.868" cy="60.067" r="1.227" opacity="0.509"/><circle cx="579.546" cy="63.862" r="1.227" opacity="0.509"/><circle cx="612.846" cy="70.163" r="1.227" opacity="0.509"/><circle cx="645.583" cy="78.934" r="1.227" opacity="0.509"/><circle cx="677.573" cy="90.128" r="1.227" opacity="0.509"/><circle cx="708.636" cy="103.681" r="1.227" opacity="0.509"/><circle cx="738.6" cy="119.517" r="1.227" opacity="0.509"/><circle cx="767.297" cy="137.549" r="1.227" opacity="0.509"/><circle cx="794.566" cy="157.674" r="1.227" opacity="0.509"/><circle cx="820.254" cy="179.781" r="1.227" opacity="0.509"/><circle cx="844.219" cy="203.746" r="1.227" opacity="0.509"/><circle cx="866.326" cy="229.434" r="1.227" opacity="0.509"/><circle cx="886.451" cy="256.703" r="1.227" opacity="0.509"/><circle cx="904.483" cy="285.4" r="1.227" opacity="0.509"/><circle cx="920.319" cy="315.364" r="1.227" opacity="0.509"/><circle cx="933.872" cy="346.427" r="1.227" opacity="0.509"/><circle cx="945.066" cy="378.417" r="1.227" opacity="0.509"/><circle cx="953.837" cy="411.154" r="1.227" opacity="0.509"/><circle cx="960.138" cy="444.454" r="1.227" opacity="0.509"/><circle cx="963.933" cy="478.132" r="1.227" opacity="0.509"/><circle cx="965.2" cy="512" r="1.227" opacity="0.509"/><circle cx="963.933" cy="545.868" r="1.227" opacity="0.509"/><circle cx="960.138" cy="579.546" r="1.227" opacity="0.509"/><circle cx="953.837" cy="612.846" r="1.227" opacity="0.509"/><circle cx="945.066" cy="645.583" r="1.227" opacity="0.509"/><circle cx="933.872" cy="677.573" r="1.227" opacity="0.509"/><circle cx="920.319" cy="708.636" r="1.227" opacity="0.509"/><circle cx="904.483" cy="738.6" r="1.227" opacity="0.509"/><circle cx="886.451" cy="767.297" r="1.227" opacity="0.509"/><circle cx="866.326" cy="794.566" r="1.227" opacity="0.509"/><circle cx="844.219" cy="820.254" r="1.227" opacity="0.509"/><circle cx="820.254" cy="844.219" r="1.227" opacity="0.509"/><circle cx="794.566" cy="866.326" r="1.227" opacity="0.509"/><circle cx="767.297" cy="886.451" r="1.227" opacity="0.509"/><circle cx="738.6" cy="904.483" r="1.227" opacity="0.509"/><circle cx="708.636" cy="920.319" r="1.227" opacity="0.509"/><circle cx="677.573" cy="933.872" r="1.227" opacity="0.509"/><circle cx="645.583" cy="945.066" r="1.227" opacity="0.509"/><circle cx="612.846" cy="953.837" r="1.227" opacity="0.509"/><circle cx="579.546" cy="960.138" r="1.227" opacity="0.509"/><circle cx="545.868" cy="963.933" r="1.227" opacity="0.509"/><circle cx="512" cy="965.2" r="1.227" opacity="0.509"/><circle cx="478.132" cy="963.933" r="1.227" opacity="0.509"/><circle cx="444.454" cy="960.138" r="1.227" opacity="0.509"/><circle cx="411.154" cy="953.837" r="1.227" opacity="0.509"/><circle cx="378.417" cy="945.066" r="1.227" opacity="0.509"/><circle cx="346.427" cy="933.872" r="1.227" opacity="0.509"/><circle cx="315.364" cy="920.319" r="1.227" opacity="0.509"/><circle cx="285.4" cy="904.483" r="1.227" opacity="0.509"/><circle cx="256.703" cy="886.451" r="1.227" opacity="0.509"/><circle cx="229.434" cy="866.326" r="1.227" opacity="0.509"/><circle cx="203.746" cy="844.219" r="1.227" opacity="0.509"/><circle cx="179.781" cy="820.254" r="1.227" opacity="0.509"/><circle cx="157.674" cy="794.566" r="1.227" opacity="0.509"/><circle cx="137.549" cy="767.297" r="1.227" opacity="0.509"/><circle cx="119.517" cy="738.6" r="1.227" opacity="0.509"/><circle cx="103.681" cy="708.636" r="1.227" opacity="0.509"/><circle cx="90.128" cy="677.573" r="1.227" opacity="0.509"/><circle cx="78.934" cy="645.583" r="1.227" opacity="0.509"/><circle cx="70.163" cy="612.846" r="1.227" opacity="0.509"/><circle cx="63.862" cy="579.546" r="1.227" opacity="0.509"/><circle cx="60.067" cy="545.868" r="1.227" opacity="0.509"/><circle cx="58.8" cy="512" r="1.227" opacity="0.509"/><circle cx="60.067" cy="478.132" r="1.227" opacity="0.509"/><circle cx="63.862" cy="444.454" r="1.227" opacity="0.509"/><circle cx="70.163" cy="411.154" r="1.227" opacity="0.509"/><circle cx="78.934" cy="378.417" r="1.227" opacity="0.509"/><circle cx="90.128" cy="346.427" r="1.227" opacity="0.509"/><circle cx="103.681" cy="315.364" r="1.227" opacity="0.509"/><circle cx="119.517" cy="285.4" r="1.227" opacity="0.509"/><circle cx="137.549" cy="256.703" r="1.227" opacity="0.509"/><circle cx="157.674" cy="229.434" r="1.227" opacity="0.509"/><circle cx="179.781" cy="203.746" r="1.227" opacity="0.509"/><circle cx="203.746" cy="179.781" r="1.227" opacity="0.509"/><circle cx="229.434" cy="157.674" r="1.227" opacity="0.509"/><circle cx="256.703" cy="137.549" r="1.227" opacity="0.509"/><circle cx="285.4" cy="119.517" r="1.227" opacity="0.509"/><circle cx="315.364" cy="103.681" r="1.227" opacity="0.509"/><circle cx="346.427" cy="90.128" r="1.227" opacity="0.509"/><circle cx="378.417" cy="78.934" r="1.227" opacity="0.509"/><circle cx="411.154" cy="70.163" r="1.227" opacity="0.509"/><circle cx="444.454" cy="63.862" r="1.227" opacity="0.509"/><circle cx="478.132" cy="60.067" r="1.227" opacity="0.509"/><circle cx="529.492" cy="44.527" r="1" opacity="0.42"/><circle cx="564.377" cy="47.141" r="1" opacity="0.42"/><circle cx="598.969" cy="52.355" r="1" opacity="0.42"/><circle cx="633.076" cy="60.14" r="1" opacity="0.42"/><circle cx="666.505" cy="70.451" r="1" opacity="0.42"/><circle cx="699.069" cy="83.232" r="1" opacity="0.42"/><circle cx="730.588" cy="98.411" r="1" opacity="0.42"/><circle cx="760.885" cy="115.902" r="1" opacity="0.42"/><circle cx="789.789" cy="135.609" r="1" opacity="0.42"/><circle cx="817.14" cy="157.421" r="1" opacity="0.42"/><circle cx="842.785" cy="181.215" r="1" opacity="0.42"/><circle cx="866.579" cy="206.86" r="1" opacity="0.42"/><circle cx="888.391" cy="234.211" r="1" opacity="0.42"/><circle cx="908.098" cy="263.115" r="1" opacity="0.42"/><circle cx="925.589" cy="293.412" r="1" opacity="0.42"/><circle cx="940.768" cy="324.931" r="1" opacity="0.42"/><circle cx="953.549" cy="357.495" r="1" opacity="0.42"/><circle cx="963.86" cy="390.924" r="1" opacity="0.42"/><circle cx="971.645" cy="425.031" r="1" opacity="0.42"/><circle cx="976.859" cy="459.623" r="1" opacity="0.42"/><circle cx="979.473" cy="494.508" r="1" opacity="0.42"/><circle cx="979.473" cy="529.492" r="1" opacity="0.42"/><circle cx="976.859" cy="564.377" r="1" opacity="0.42"/><circle cx="971.645" cy="598.969" r="1" opacity="0.42"/><circle cx="963.86" cy="633.076" r="1" opacity="0.42"/><circle cx="953.549" cy="666.505" r="1" opacity="0.42"/><circle cx="940.768" cy="699.069" r="1" opacity="0.42"/><circle cx="925.589" cy="730.588" r="1" opacity="0.42"/><circle cx="908.098" cy="760.885" r="1" opacity="0.42"/><circle cx="888.391" cy="789.789" r="1" opacity="0.42"/><circle cx="866.579" cy="817.14" r="1" opacity="0.42"/><circle cx="842.785" cy="842.785" r="1" opacity="0.42"/><circle cx="817.14" cy="866.579" r="1" opacity="0.42"/><circle cx="789.789" cy="888.391" r="1" opacity="0.42"/><circle cx="760.885" cy="908.098" r="1" opacity="0.42"/><circle cx="730.588" cy="925.589" r="1" opacity="0.42"/><circle cx="699.069" cy="940.768" r="1" opacity="0.42"/><circle cx="666.505" cy="953.549" r="1" opacity="0.42"/><circle cx="633.076" cy="963.86" r="1" opacity="0.42"/><circle cx="598.969" cy="971.645" r="1" opacity="0.42"/><circle cx="564.377" cy="976.859" r="1" opacity="0.42"/><circle cx="529.492" cy="979.473" r="1" opacity="0.42"/><circle cx="494.508" cy="979.473" r="1" opacity="0.42"/><circle cx="459.623" cy="976.859" r="1" opacity="0.42"/><circle cx="425.031" cy="971.645" r="1" opacity="0.42"/><circle cx="390.924" cy="963.86" r="1" opacity="0.42"/><circle cx="357.495" cy="953.549" r="1" opacity="0.42"/><circle cx="324.931" cy="940.768" r="1" opacity="0.42"/><circle cx="293.412" cy="925.589" r="1" opacity="0.42"/><circle cx="263.115" cy="908.098" r="1" opacity="0.42"/><circle cx="234.211" cy="888.391" r="1" opacity="0.42"/><circle cx="206.86" cy="866.579" r="1" opacity="0.42"/><circle cx="181.215" cy="842.785" r="1" opacity="0.42"/><circle cx="157.421" cy="817.14" r="1" opacity="0.42"/><circle cx="135.609" cy="789.789" r="1" opacity="0.42"/><circle cx="115.902" cy="760.885" r="1" opacity="0.42"/><circle cx="98.411" cy="730.588" r="1" opacity="0.42"/><circle cx="83.232" cy="699.069" r="1" opacity="0.42"/><circle cx="70.451" cy="666.505" r="1" opacity="0.42"/><circle cx="60.14" cy="633.076" r="1" opacity="0.42"/><circle cx="52.355" cy="598.969" r="1" opacity="0.42"/><circle cx="47.141" cy="564.377" r="1" opacity="0.42"/><circle cx="44.527" cy="529.492" r="1" opacity="0.42"/><circle cx="44.527" cy="494.508" r="1" opacity="0.42"/><circle cx="47.141" cy="459.623" r="1" opacity="0.42"/><circle cx="52.355" cy="425.031" r="1" opacity="0.42"/><circle cx="60.14" cy="390.924" r="1" opacity="0.42"/><circle cx="70.451" cy="357.495" r="1" opacity="0.42"/><circle cx="83.232" cy="324.931" r="1" opacity="0.42"/><circle cx="98.411" cy="293.412" r="1" opacity="0.42"/><circle cx="115.902" cy="263.115" r="1" opacity="0.42"/><circle cx="135.609" cy="234.211" r="1" opacity="0.42"/><circle cx="157.421" cy="206.86" r="1" opacity="0.42"/><circle cx="181.215" cy="181.215" r="1" opacity="0.42"/><circle cx="206.86" cy="157.421" r="1" opacity="0.42"/><circle cx="234.211" cy="135.609" r="1" opacity="0.42"/><circle cx="263.115" cy="115.902" r="1" opacity="0.42"/><circle cx="293.412" cy="98.411" r="1" opacity="0.42"/><circle cx="324.931" cy="83.232" r="1" opacity="0.42"/><circle cx="357.495" cy="70.451" r="1" opacity="0.42"/><circle cx="390.924" cy="60.14" r="1" opacity="0.42"/><circle cx="425.031" cy="52.355" r="1" opacity="0.42"/><circle cx="459.623" cy="47.141" r="1" opacity="0.42"/><circle cx="494.508" cy="44.527" r="1" opacity="0.42"/></g></svg>