<svg xmlns="http://www.w3.org/2000/svg" viewBox="0 0 1024 1024" aria-label="NEUS mark">
  <path
    transform="scale(0.5)"
    fill="#AFC2DB"
    stroke="#AFC2DB"
    stroke-width="36"
    stroke-linecap="round"
    stroke-linejoin="round"
    paint-order="stroke fill"
    d="M 1331.81 335.91 L 1653.96 335.782 L 1654.02 1711.01 L 1387.17 1710.92 C 1383.12 1706.73 1379.49 1702.36 1375.72 1697.93 C 1350.89 1668.83 1326.35 1639.82 1302.19 1610.15 L 1194.98 1479.67 L 848.111 1060.37 C 813.565 1019.32 781.073 976.338 745.719 935.955 C 735.682 924.491 727.012 910.835 716.087 900.376 L 716.25 1453.59 L 716.237 1618.01 C 716.242 1648.87 716.912 1680.33 715.952 1711.08 C 704.557 1710.03 687.575 1710.33 675.678 1710.31 L 610.698 1710.32 L 394.025 1710.74 L 393.939 336.127 C 430.532 334.804 475.276 336.052 512.51 335.985 C 561.005 335.897 613.42 335.018 661.503 336.395 C 669.3 342.922 687.76 367.679 695.796 377.275 C 729.861 417.969 763.643 458.898 797.14 500.06 L 1149.93 928.094 L 1275.92 1080.6 C 1281.97 1087.93 1326.41 1144.33 1331.49 1145.76 C 1332.97 1142.29 1331.88 938.471 1331.83 918.773 L 1331.71 545.693 C 1331.39 475.766 1331.42 405.837 1331.81 335.91 z"
  />
</svg>
